<?xml version="1.0" encoding="UTF-8"?>
<!DOCTYPE svg PUBLIC "-//W3C//DTD SVG 1.1//EN" "http://www.w3.org/Graphics/SVG/1.1/DTD/svg11.dtd">
<!-- Creator: CorelDRAW 2020 (64-Bit) -->
<svg xmlns="http://www.w3.org/2000/svg" xml:space="preserve" width="153.609mm" height="61.1421mm" version="1.1" style="shape-rendering:geometricPrecision; text-rendering:geometricPrecision; image-rendering:optimizeQuality; fill-rule:evenodd; clip-rule:evenodd"
viewBox="0 0 11924.55 4746.41"
 xmlns:xlink="http://www.w3.org/1999/xlink"
 xmlns:xodm="http://www.corel.com/coreldraw/odm/2003">
 <defs>
  <style type="text/css">
   <![CDATA[
    .str4 {stroke:black;stroke-width:20.54;stroke-miterlimit:22.9256}
    .str2 {stroke:#939091;stroke-width:15.53;stroke-miterlimit:22.9256}
    .str1 {stroke:#514F4F;stroke-width:15.53;stroke-miterlimit:22.9256}
    .str0 {stroke:#282829;stroke-width:15.53;stroke-miterlimit:22.9256}
    .str3 {stroke:white;stroke-width:15.53;stroke-miterlimit:22.9256}
    .fil0 {fill:none}
    .fil12 {fill:#4D4D4D}
    .fil11 {fill:#4E4E4E}
    .fil10 {fill:#505050}
    .fil9 {fill:#515151}
    .fil8 {fill:#535353}
    .fil7 {fill:#545454}
    .fil6 {fill:#565656}
    .fil13 {fill:#575757}
    .fil14 {fill:#585858}
    .fil15 {fill:#5A5A5A}
    .fil16 {fill:#5B5B5B}
    .fil17 {fill:#5D5D5D}
    .fil18 {fill:#5E5E5E}
    .fil19 {fill:#606060}
    .fil20 {fill:#616161}
    .fil21 {fill:#626262}
    .fil22 {fill:#646464}
    .fil23 {fill:#656565}
    .fil169 {fill:#666666}
    .fil24 {fill:#676767}
    .fil25 {fill:#686868}
    .fil26 {fill:dimgray}
    .fil27 {fill:#6B6B6B}
    .fil28 {fill:#6C6C6C}
    .fil29 {fill:#6E6E6E}
    .fil30 {fill:#6F6F6F}
    .fil31 {fill:#717171}
    .fil32 {fill:#727272}
    .fil33 {fill:#737373}
    .fil34 {fill:#757575}
    .fil35 {fill:#767676}
    .fil36 {fill:#787878}
    .fil37 {fill:#797979}
    .fil38 {fill:#7B7B7B}
    .fil39 {fill:#7C7C7C}
    .fil40 {fill:#7D7D7D}
    .fil41 {fill:#7F7F7F}
    .fil42 {fill:gray}
    .fil168 {fill:gray}
    .fil43 {fill:#828282}
    .fil44 {fill:#838383}
    .fil45 {fill:#858585}
    .fil46 {fill:#868686}
    .fil47 {fill:#878787}
    .fil48 {fill:#898989}
    .fil49 {fill:#8A8A8A}
    .fil50 {fill:#8C8C8C}
    .fil51 {fill:#8D8D8D}
    .fil52 {fill:#8F8F8F}
    .fil53 {fill:#909090}
    .fil54 {fill:#919191}
    .fil55 {fill:#939393}
    .fil56 {fill:#949494}
    .fil163 {fill:#959595}
    .fil57 {fill:#969696}
    .fil58 {fill:#979797}
    .fil162 {fill:#989898}
    .fil59 {fill:#999999}
    .fil2 {fill:#999999}
    .fil60 {fill:#9A9A9A}
    .fil61 {fill:#9B9B9B}
    .fil161 {fill:#9C9C9C}
    .fil62 {fill:#9D9D9D}
    .fil63 {fill:#9E9E9E}
    .fil160 {fill:#9F9F9F}
    .fil64 {fill:#A0A0A0}
    .fil65 {fill:#A1A1A1}
    .fil66 {fill:#A2A2A2}
    .fil159 {fill:#A3A3A3}
    .fil67 {fill:#A4A4A4}
    .fil68 {fill:#A5A5A5}
    .fil158 {fill:#A6A6A6}
    .fil69 {fill:#A7A7A7}
    .fil70 {fill:#A8A8A8}
    .fil157 {fill:darkgray}
    .fil71 {fill:#AAAAAA}
    .fil72 {fill:#ABABAB}
    .fil73 {fill:#ACACAC}
    .fil156 {fill:#ADADAD}
    .fil74 {fill:#AEAEAE}
    .fil75 {fill:#AFAFAF}
    .fil155 {fill:#B0B0B0}
    .fil76 {fill:#B1B1B1}
    .fil77 {fill:#B2B2B2}
    .fil154 {fill:#B3B3B3}
    .fil78 {fill:#B4B4B4}
    .fil79 {fill:#B5B5B5}
    .fil80 {fill:#B6B6B6}
    .fil153 {fill:#B7B7B7}
    .fil81 {fill:#B8B8B8}
    .fil82 {fill:#B9B9B9}
    .fil152 {fill:#BABABA}
    .fil83 {fill:#BBBBBB}
    .fil84 {fill:#BCBCBC}
    .fil151 {fill:#BDBDBD}
    .fil85 {fill:#BEBEBE}
    .fil86 {fill:#BFBFBF}
    .fil87 {fill:silver}
    .fil150 {fill:#C1C1C1}
    .fil88 {fill:#C2C2C2}
    .fil89 {fill:#C3C3C3}
    .fil149 {fill:#C4C4C4}
    .fil90 {fill:#C5C5C5}
    .fil91 {fill:#C6C6C6}
    .fil148 {fill:#C7C7C7}
    .fil92 {fill:#C8C8C8}
    .fil93 {fill:#C9C9C9}
    .fil94 {fill:#CACACA}
    .fil147 {fill:#CBCBCB}
    .fil95 {fill:#CCCCCC}
    .fil1 {fill:#CCCCCC}
    .fil96 {fill:#CDCDCD}
    .fil146 {fill:#CECECE}
    .fil97 {fill:#CFCFCF}
    .fil98 {fill:#D0D0D0}
    .fil99 {fill:#D1D1D1}
    .fil145 {fill:#D2D2D2}
    .fil100 {fill:lightgrey}
    .fil101 {fill:#D4D4D4}
    .fil144 {fill:#D5D5D5}
    .fil102 {fill:#D6D6D6}
    .fil103 {fill:#D7D7D7}
    .fil143 {fill:#D8D8D8}
    .fil104 {fill:#D9D9D9}
    .fil105 {fill:#DADADA}
    .fil106 {fill:#DBDBDB}
    .fil142 {fill:gainsboro}
    .fil107 {fill:#DDDDDD}
    .fil108 {fill:#DEDEDE}
    .fil141 {fill:#DFDFDF}
    .fil109 {fill:#E0E0E0}
    .fil110 {fill:#E1E1E1}
    .fil140 {fill:#E2E2E2}
    .fil111 {fill:#E3E3E3}
    .fil112 {fill:#E4E4E4}
    .fil113 {fill:#E5E5E5}
    .fil139 {fill:#E6E6E6}
    .fil114 {fill:#E7E7E7}
    .fil115 {fill:#E8E8E8}
    .fil138 {fill:#E9E9E9}
    .fil116 {fill:#EAEAEA}
    .fil117 {fill:#EBEBEB}
    .fil137 {fill:#ECECEC}
    .fil118 {fill:#EDEDED}
    .fil119 {fill:#EEEEEE}
    .fil120 {fill:#EFEFEF}
    .fil136 {fill:#F0F0F0}
    .fil121 {fill:#F1F1F1}
    .fil122 {fill:#F2F2F2}
    .fil135 {fill:#F3F3F3}
    .fil123 {fill:#F4F4F4}
    .fil124 {fill:whitesmoke}
    .fil134 {fill:#F6F6F6}
    .fil125 {fill:#F7F7F7}
    .fil126 {fill:#F8F8F8}
    .fil127 {fill:#F9F9F9}
    .fil133 {fill:#FAFAFA}
    .fil128 {fill:#FBFBFB}
    .fil129 {fill:#FCFCFC}
    .fil132 {fill:#FDFDFD}
    .fil130 {fill:#FEFEFE}
    .fil131 {fill:white}
    .fil3 {fill:white}
    .fil164 {fill:url(#id2)}
    .fil170 {fill:url(#id3)}
    .fil165 {fill:url(#id4)}
    .fil4 {fill:url(#id5)}
    .fil5 {fill:url(#id6)}
    .fil166 {fill:url(#id7)}
    .fil167 {fill:url(#id8)}
   ]]>
  </style>
    <clipPath id="id0">
     <path d="M7356.76 2851.27l1949.47 0c58.49,0 106.33,47.84 106.33,106.33l0 958.53c0,58.49 -47.84,106.33 -106.33,106.33l-1949.47 0c-58.49,0 -106.33,-47.84 -106.33,-106.33l0 -958.53c0,-58.49 47.84,-106.33 106.33,-106.33z"/>
    </clipPath>
    <clipPath id="id1">
     <path d="M8205.48 2750.13l252.05 0c9.89,0 17.97,8.08 17.97,17.97l0 1337.54c0,9.89 -8.08,17.97 -17.97,17.97l-252.05 0c-9.89,0 -17.97,-8.08 -17.97,-17.97l0 -1337.54c0,-9.89 8.08,-17.97 17.97,-17.97z"/>
    </clipPath>
  <linearGradient id="id2" gradientUnits="userSpaceOnUse" x1="11453.62" y1="3209.53" x2="11802.46" y2="3209.53">
   <stop offset="0" style="stop-opacity:1; stop-color:#474646"/>
   <stop offset="0.501961" style="stop-opacity:1; stop-color:white"/>
   <stop offset="1" style="stop-opacity:1; stop-color:#9C9C9C"/>
  </linearGradient>
  <linearGradient id="id3" gradientUnits="userSpaceOnUse" x1="4512.23" y1="1467.48" x2="4144.88" y2="2069.41">
   <stop offset="0" style="stop-opacity:1; stop-color:#525252"/>
   <stop offset="1" style="stop-opacity:1; stop-color:white"/>
  </linearGradient>
  <linearGradient id="id4" gradientUnits="userSpaceOnUse" xlink:href="#id2" x1="11520.25" y1="3358.46" x2="11735.83" y2="3358.46">
  </linearGradient>
  <linearGradient id="id5" gradientUnits="userSpaceOnUse" x1="7168.35" y1="3571.39" x2="7218.76" y2="3294.2">
   <stop offset="0" style="stop-opacity:1; stop-color:black"/>
   <stop offset="1" style="stop-opacity:1; stop-color:white"/>
  </linearGradient>
  <linearGradient id="id6" gradientUnits="userSpaceOnUse" xlink:href="#id5" x1="9450.47" y1="3571.39" x2="9500.88" y2="3294.2">
  </linearGradient>
  <linearGradient id="id7" gradientUnits="userSpaceOnUse" xlink:href="#id2" x1="11579.05" y1="3470.18" x2="11677.04" y2="3470.18">
  </linearGradient>
  <radialGradient id="id8" gradientUnits="objectBoundingBox" cx="49.9998%" cy="50%" r="50.0002%" fx="49.9998%" fy="50%">
   <stop offset="0" style="stop-opacity:1; stop-color:white"/>
   <stop offset="1" style="stop-opacity:1; stop-color:#666666"/>
  </radialGradient>
 </defs>
 <g id="Capa_x0020_1">
  <metadata id="CorelCorpID_0Corel-Layer"/>
  <g id="_1998269773472">
   <path class="fil0 str0" d="M5811.63 3445.28l0 826.06c0,90.69 -74.05,164.74 -164.74,164.74l-535.56 0 0 -93.16 535.56 0c39.27,0 71.59,-32.32 71.59,-71.59l0 -826.06 93.16 0z"/>
   <path class="fil0 str1" d="M5796.11 3460.8l0 810.53c0,82.12 -67.09,149.22 -149.22,149.22l-520.04 0 0 -62.1 520.04 0c47.84,0 87.12,-39.27 87.12,-87.12l0 -810.53 62.1 0z"/>
   <path class="fil0 str2" d="M5780.58 3476.33l0 795.01c0,73.55 -60.14,133.69 -133.69,133.69l-504.51 0 0 -31.05 504.51 0c56.41,0 102.64,-46.23 102.64,-102.64l0 -795.01 31.05 0z"/>
  </g>
  <path class="fil0 str3" d="M5765.06 3491.85l0 779.48c0,64.98 -53.18,118.17 -118.17,118.17l-488.99 0"/>
  <g id="_1998269772176">
   <line class="fil0 str4" x1="5109.03" y1="4604.92" x2="5109.03" y2= "4187.14" />
   <line class="fil0 str4" x1="5055.77" y1="4552.95" x2="5055.77" y2= "4239.11" />
   <line class="fil0 str4" x1="5002.51" y1="4513.9" x2="5002.51" y2= "4278.16" />
  </g>
  <rect class="fil1 str4" x="6559.72" y="3220.88" width="106.01" height="189.71"/>
  <circle class="fil2 str4" cx="6612.73" cy="3134.4" r="212.03"/>
  <circle class="fil3 str4" cx="6612.73" cy="3134.4" r="145.1"/>
  <g id="_1998269775872">
   <path class="fil0 str0" d="M9485.99 3386.22l1739.52 0c138.57,0 251.79,113.22 251.79,251.79l0 407.38 -93.16 0 0 -407.38c0,-87.15 -71.48,-158.64 -158.64,-158.64l-1739.52 0 0 -93.16z"/>
   <path class="fil0 str1" d="M9501.51 3401.74l1723.99 0c130,0 236.26,106.27 236.26,236.26l0 391.86 -62.1 0 0 -391.86c0,-95.72 -78.44,-174.16 -174.16,-174.16l-1723.99 0 0 -62.1z"/>
   <path class="fil0 str2" d="M9517.04 3417.27l1708.46 0c121.43,0 220.74,99.31 220.74,220.74l0 376.33 -31.05 0 0 -376.33c0,-104.29 -85.39,-189.69 -189.69,-189.69l-1708.46 0 0 -31.05z"/>
  </g>
  <path class="fil0 str3" d="M9532.56 3432.79l1692.94 0c112.87,0 205.21,92.36 205.21,205.21l0 360.81"/>
  <g id="_1998269776976">
   <path class="fil0 str0" d="M7183.24 3479.37l-2743.39 0c-104.11,0 -189.16,-85.04 -189.16,-189.16l0 -1244.78 93.16 0 0 1244.78c0,52.69 43.31,96 96,96l2743.39 0 0 93.16z"/>
   <path class="fil0 str1" d="M7167.71 3463.85l-2727.87 0c-95.55,0 -173.63,-78.09 -173.63,-173.63l0 -1229.26 62.1 0 0 1229.26c0,61.26 50.26,111.53 111.53,111.53l2727.87 0 0 62.1z"/>
   <path class="fil0 str2" d="M7152.19 3448.32l-2712.34 0c-86.98,0 -158.11,-71.13 -158.11,-158.11l0 -1213.73 31.05 0 0 1213.73c0,69.84 57.22,127.06 127.06,127.06l2712.34 0 0 31.05z"/>
  </g>
  <path class="fil0 str3" d="M7136.66 3432.79l-2696.82 0c-78.39,0 -142.58,-64.16 -142.58,-142.58l0 -1198.21"/>
  <g id="_1998269787488">
   <polygon class="fil0 str0" points="3394.1,1707.14 3951.79,1707.14 3951.79,1800.3 3394.1,1800.3 "/>
   <polygon class="fil0 str1" points="3409.62,1722.67 3936.27,1722.67 3936.27,1784.77 3409.62,1784.77 "/>
   <polygon class="fil0 str2" points="3425.15,1738.2 3920.74,1738.2 3920.74,1769.25 3425.15,1769.25 "/>
  </g>
  <line class="fil0 str3" x1="3440.67" y1="1753.72" x2="3905.21" y2= "1753.72" />
  <g id="_1998269790416">
   <path class="fil0 str0" d="M2804.34 1800.3l-826.06 0c-39.27,0 -71.59,32.32 -71.59,71.59l0 535.56 -93.16 0 0 -535.56c0,-90.69 74.05,-164.74 164.74,-164.74l826.06 0 0 93.16z"/>
   <path class="fil0 str1" d="M2788.81 1784.77l-810.53 0c-47.84,0 -87.12,39.27 -87.12,87.12l0 520.04 -62.1 0 0 -520.04c0,-82.12 67.09,-149.22 149.22,-149.22l810.53 0 0 62.1z"/>
   <path class="fil0 str2" d="M2773.29 1769.25l-795.01 0c-56.41,0 -102.64,46.23 -102.64,102.64l0 504.51 -31.05 0 0 -504.51c0,-73.55 60.14,-133.69 133.69,-133.69l795.01 0 0 31.05z"/>
  </g>
  <path class="fil0 str3" d="M2757.76 1753.72l-779.48 0c-64.98,0 -118.17,53.18 -118.17,118.17l0 488.99"/>
  <g id="_1998269789744">
   <path class="fil0 str0" d="M1674.51 182.85l1253.1 0c117.62,0 213.68,96.07 213.68,213.68l0 1370.44 -93.16 0 0 -1370.44c0,-66.19 -54.33,-120.53 -120.53,-120.53l-1253.1 0 0 -93.16z"/>
   <path class="fil0 str1" d="M1690.03 198.37l1237.57 0c109.05,0 198.16,89.11 198.16,198.16l0 1354.92 -62.1 0 0 -1354.92c0,-74.76 -61.29,-136.05 -136.05,-136.05l-1237.57 0 0 -62.1z"/>
   <path class="fil0 str2" d="M1705.56 213.9l1222.05 0c100.48,0 182.63,82.15 182.63,182.63l0 1339.39 -31.05 0 0 -1339.39c0,-83.33 -68.24,-151.58 -151.58,-151.58l-1222.05 0 0 -31.05z"/>
  </g>
  <path class="fil0 str3" d="M1721.09 229.43l1206.52 0c91.91,0 167.1,75.21 167.1,167.1l0 1323.87"/>
  <rect class="fil4 str4" x="7136.66" y="3289.99" width="113.77" height="285.61"/>
  <rect class="fil5 str4" x="9418.79" y="3289.99" width="113.77" height="285.61"/>
  <g>
   <g style="clip-path:url(#id0)">
    <polygon class="fil6" points="7252.88,4074.25 7252.78,4070.13 9439.97,4016.5 9440.07,4020.62 "/>
    <polygon id="1" class="fil7" points="7252.83,4072.42 7252.66,4065.55 9439.85,4011.92 9440.02,4018.79 "/>
    <polygon id="2" class="fil8" points="7252.72,4067.84 7252.56,4060.98 9439.74,4007.34 9439.91,4014.21 "/>
    <polygon id="3" class="fil9" points="7252.61,4063.26 7252.44,4056.4 9439.63,4002.76 9439.8,4009.63 "/>
    <polygon id="4" class="fil10" points="7252.5,4058.69 7252.33,4051.82 9439.52,3998.19 9439.68,4005.05 "/>
    <polygon id="5" class="fil11" points="7252.38,4054.11 7252.21,4047.25 9439.4,3993.61 9439.57,4000.48 "/>
    <polygon id="6" class="fil12" points="7252.28,4049.54 7252.1,4042.67 9439.29,3989.04 9439.46,3995.9 "/>
    <polygon id="7" class="fil11" points="7252.16,4044.96 7251.99,4038.09 9439.18,3984.46 9439.35,3991.32 "/>
    <polygon id="8" class="fil10" points="7252.05,4040.37 7251.88,4033.51 9439.07,3979.88 9439.24,3986.75 "/>
    <polygon id="9" class="fil9" points="7251.93,4035.8 7251.77,4028.93 9438.95,3975.31 9439.12,3982.17 "/>
    <polygon id="10" class="fil8" points="7251.83,4031.22 7251.65,4024.36 9438.84,3970.73 9439.01,3977.6 "/>
    <polygon id="11" class="fil7" points="7251.71,4026.65 7251.55,4019.78 9438.73,3966.15 9438.9,3973.02 "/>
    <polygon id="12" class="fil6" points="7251.6,4022.07 7251.43,4015.21 9438.62,3961.57 9438.79,3968.44 "/>
    <polygon id="13" class="fil13" points="7251.48,4017.5 7251.32,4010.63 9438.51,3956.99 9438.67,3963.86 "/>
    <polygon id="14" class="fil14" points="7251.38,4012.92 7251.2,4006.06 9438.39,3952.42 9438.56,3959.28 "/>
    <polygon id="15" class="fil15" points="7251.26,4008.34 7251.1,4001.48 9438.28,3947.84 9438.45,3954.71 "/>
    <polygon id="16" class="fil16" points="7251.15,4003.77 7250.98,3996.89 9438.17,3943.27 9438.34,3950.13 "/>
    <polygon id="17" class="fil17" points="7251.04,3999.18 7250.87,3992.32 9438.06,3938.69 9438.22,3945.55 "/>
    <polygon id="18" class="fil18" points="7250.92,3994.61 7250.75,3987.74 9437.94,3934.11 9438.11,3940.98 "/>
    <polygon id="19" class="fil19" points="7250.82,3990.03 7250.65,3983.17 9437.83,3929.54 9438,3936.4 "/>
    <polygon id="20" class="fil20" points="7250.7,3985.45 7250.54,3978.59 9437.72,3924.96 9437.89,3931.83 "/>
    <polygon id="21" class="fil21" points="7250.59,3980.88 7250.42,3974.01 9437.61,3920.38 9437.78,3927.25 "/>
    <polygon id="22" class="fil22" points="7250.47,3976.3 7250.31,3969.44 9437.49,3915.8 9437.66,3922.67 "/>
    <polygon id="23" class="fil23" points="7250.37,3971.73 7250.2,3964.86 9437.38,3911.23 9437.55,3918.09 "/>
    <polygon id="24" class="fil24" points="7250.25,3967.15 7250.09,3960.28 9437.27,3906.65 9437.44,3913.51 "/>
    <polygon id="25" class="fil25" points="7250.14,3962.57 7249.97,3955.7 9437.16,3902.07 9437.33,3908.94 "/>
    <polygon id="26" class="fil26" points="7250.02,3957.99 7249.86,3951.12 9437.05,3897.5 9437.21,3904.36 "/>
    <polygon id="27" class="fil27" points="7249.92,3953.41 7249.74,3946.55 9436.93,3892.92 9437.1,3899.79 "/>
    <polygon id="28" class="fil28" points="7249.81,3948.84 7249.64,3941.97 9436.82,3888.35 9436.99,3895.21 "/>
    <polygon id="29" class="fil29" points="7249.69,3944.26 7249.52,3937.4 9436.71,3883.77 9436.88,3890.63 "/>
    <polygon id="30" class="fil30" points="7249.58,3939.69 7249.41,3932.82 9436.6,3879.19 9436.76,3886.06 "/>
    <polygon id="31" class="fil31" points="7249.47,3935.11 7249.29,3928.25 9436.48,3874.61 9436.65,3881.48 "/>
    <polygon id="32" class="fil32" points="7249.36,3930.53 7249.19,3923.67 9436.37,3870.03 9436.54,3876.9 "/>
    <polygon id="33" class="fil33" points="7249.24,3925.96 7249.08,3919.09 9436.26,3865.46 9436.43,3872.32 "/>
    <polygon id="34" class="fil34" points="7249.13,3921.38 7248.96,3914.51 9436.15,3860.88 9436.32,3867.74 "/>
    <polygon id="35" class="fil35" points="7249.02,3916.8 7248.85,3909.93 9436.04,3856.3 9436.2,3863.17 "/>
    <polygon id="36" class="fil36" points="7248.91,3912.22 7248.74,3905.36 9435.92,3851.73 9436.09,3858.59 "/>
    <polygon id="37" class="fil37" points="7248.79,3907.64 7248.63,3900.78 9435.81,3847.15 9435.98,3854.02 "/>
    <polygon id="38" class="fil38" points="7248.68,3903.07 7248.51,3896.2 9435.7,3842.58 9435.87,3849.44 "/>
    <polygon id="39" class="fil39" points="7248.57,3898.49 7248.4,3891.63 9435.59,3838 9435.75,3844.87 "/>
    <polygon id="40" class="fil40" points="7248.46,3893.92 7248.29,3887.05 9435.47,3833.42 9435.64,3840.29 "/>
    <polygon id="41" class="fil41" points="7248.35,3889.34 7248.18,3882.48 9435.36,3828.84 9435.53,3835.71 "/>
    <polygon id="42" class="fil42" points="7248.23,3884.76 7248.06,3877.9 9435.25,3824.26 9435.42,3831.13 "/>
    <polygon id="43" class="fil43" points="7248.12,3880.19 7247.95,3873.32 9435.14,3819.69 9435.31,3826.55 "/>
    <polygon id="44" class="fil44" points="7248.01,3875.61 7247.84,3868.74 9435.02,3815.11 9435.19,3821.98 "/>
    <polygon id="45" class="fil45" points="7247.9,3871.03 7247.73,3864.16 9434.91,3810.54 9435.08,3817.4 "/>
    <polygon id="46" class="fil46" points="7247.78,3866.45 7247.62,3859.59 9434.8,3805.96 9434.97,3812.82 "/>
    <polygon id="47" class="fil47" points="7247.67,3861.88 7247.5,3855.01 9434.69,3801.38 9434.86,3808.25 "/>
    <polygon id="48" class="fil48" points="7247.56,3857.3 7247.39,3850.44 9434.58,3796.81 9434.74,3803.67 "/>
    <polygon id="49" class="fil49" points="7247.45,3852.72 7247.28,3845.86 9434.46,3792.23 9434.63,3799.1 "/>
    <polygon id="50" class="fil50" points="7247.33,3848.15 7247.17,3841.28 9434.35,3787.65 9434.52,3794.52 "/>
    <polygon id="51" class="fil51" points="7247.22,3843.57 7247.05,3836.71 9434.24,3783.07 9434.41,3789.94 "/>
    <polygon id="52" class="fil52" points="7247.11,3839 7246.94,3832.13 9434.13,3778.49 9434.29,3785.36 "/>
    <polygon id="53" class="fil53" points="7247,3834.42 7246.83,3827.55 9434.01,3773.92 9434.18,3780.78 "/>
    <polygon id="54" class="fil54" points="7246.89,3829.84 7246.72,3822.97 9433.9,3769.34 9434.08,3776.21 "/>
    <polygon id="55" class="fil55" points="7246.77,3825.26 7246.61,3818.39 9433.79,3764.77 9433.96,3771.63 "/>
    <polygon id="56" class="fil56" points="7246.66,3820.68 7246.49,3813.82 9433.68,3760.19 9433.85,3767.06 "/>
    <polygon id="57" class="fil57" points="7246.55,3816.11 7246.38,3809.24 9433.56,3755.62 9433.73,3762.48 "/>
    <polygon id="58" class="fil58" points="7246.44,3811.53 7246.27,3804.67 9433.45,3751.04 9433.63,3757.9 "/>
    <polygon id="59" class="fil59" points="7246.32,3806.95 7246.16,3800.09 9433.35,3746.46 9433.51,3753.33 "/>
    <polygon id="60" class="fil60" points="7246.21,3802.38 7246.04,3795.51 9433.23,3741.88 9433.4,3748.75 "/>
    <polygon id="61" class="fil61" points="7246.1,3797.8 7245.93,3790.94 9433.12,3737.3 9433.28,3744.17 "/>
    <polygon id="62" class="fil62" points="7245.99,3793.23 7245.82,3786.36 9433,3732.73 9433.17,3739.59 "/>
    <polygon id="63" class="fil63" points="7245.88,3788.65 7245.71,3781.78 9432.9,3728.15 9433.06,3735.01 "/>
    <polygon id="64" class="fil64" points="7245.76,3784.07 7245.59,3777.2 9432.78,3723.57 9432.95,3730.44 "/>
    <polygon id="65" class="fil65" points="7245.65,3779.49 7245.48,3772.63 9432.67,3719 9432.83,3725.86 "/>
    <polygon id="66" class="fil66" points="7245.54,3774.91 7245.37,3768.05 9432.55,3714.42 9432.72,3721.29 "/>
    <polygon id="67" class="fil67" points="7245.43,3770.34 7245.26,3763.47 9432.45,3709.85 9432.62,3716.71 "/>
    <polygon id="68" class="fil68" points="7245.31,3765.76 7245.15,3758.9 9432.33,3705.27 9432.5,3712.13 "/>
    <polygon id="69" class="fil69" points="7245.2,3761.19 7245.03,3754.32 9432.22,3700.69 9432.39,3707.56 "/>
    <polygon id="70" class="fil70" points="7245.09,3756.61 7244.92,3749.75 9432.11,3696.11 9432.27,3702.98 "/>
    <polygon id="71" class="fil71" points="7244.98,3752.03 7244.81,3745.17 9431.99,3691.53 9432.17,3698.4 "/>
    <polygon id="72" class="fil72" points="7244.86,3747.46 7244.7,3740.59 9431.89,3686.96 9432.05,3693.82 "/>
    <polygon id="73" class="fil73" points="7244.75,3742.88 7244.58,3736.01 9431.77,3682.38 9431.94,3689.25 "/>
    <polygon id="74" class="fil74" points="7244.64,3738.3 7244.47,3731.43 9431.66,3677.81 9431.82,3684.67 "/>
    <polygon id="75" class="fil75" points="7244.53,3733.72 7244.36,3726.86 9431.54,3673.23 9431.72,3680.09 "/>
    <polygon id="76" class="fil76" points="7244.42,3729.14 7244.25,3722.28 9431.44,3668.65 9431.6,3675.52 "/>
    <polygon id="77" class="fil77" points="7244.3,3724.57 7244.13,3717.7 9431.32,3664.08 9431.49,3670.94 "/>
    <polygon id="78" class="fil78" points="7244.19,3719.99 7244.02,3713.13 9431.21,3659.5 9431.38,3666.37 "/>
    <polygon id="79" class="fil79" points="7244.08,3715.42 7243.91,3708.55 9431.09,3654.92 9431.27,3661.79 "/>
    <polygon id="80" class="fil80" points="7243.97,3710.84 7243.8,3703.98 9430.99,3650.34 9431.16,3657.21 "/>
    <polygon id="81" class="fil81" points="7243.85,3706.27 7243.69,3699.4 9430.87,3645.76 9431.04,3652.63 "/>
    <polygon id="82" class="fil82" points="7243.74,3701.69 7243.57,3694.82 9430.76,3641.19 9430.93,3648.05 "/>
    <polygon id="83" class="fil83" points="7243.63,3697.11 7243.46,3690.24 9430.65,3636.61 9430.82,3643.48 "/>
    <polygon id="84" class="fil84" points="7243.52,3692.53 7243.35,3685.66 9430.54,3632.04 9430.71,3638.9 "/>
    <polygon id="85" class="fil85" points="7243.4,3687.95 7243.24,3681.09 9430.43,3627.46 9430.59,3634.32 "/>
    <polygon id="86" class="fil86" points="7243.29,3683.38 7243.12,3676.51 9430.31,3622.88 9430.48,3629.75 "/>
    <polygon id="87" class="fil87" points="7243.19,3678.8 7243.01,3671.94 9430.2,3618.31 9430.36,3625.17 "/>
    <polygon id="88" class="fil88" points="7243.07,3674.22 7242.9,3667.36 9430.09,3613.72 9430.26,3620.6 "/>
    <polygon id="89" class="fil89" points="7242.96,3669.65 7242.79,3662.78 9429.98,3609.15 9430.15,3616.01 "/>
    <polygon id="90" class="fil90" points="7242.84,3665.07 7242.68,3658.21 9429.86,3604.57 9430.03,3611.44 "/>
    <polygon id="91" class="fil91" points="7242.73,3660.5 7242.56,3653.63 9429.75,3600 9429.92,3606.86 "/>
    <polygon id="92" class="fil92" points="7242.62,3655.92 7242.46,3649.05 9429.64,3595.42 9429.81,3602.28 "/>
    <polygon id="93" class="fil93" points="7242.51,3651.34 7242.34,3644.47 9429.53,3590.84 9429.7,3597.71 "/>
    <polygon id="94" class="fil94" points="7242.39,3646.76 7242.23,3639.89 9429.42,3586.27 9429.58,3593.13 "/>
    <polygon id="95" class="fil95" points="7242.28,3642.18 7242.11,3635.32 9429.3,3581.69 9429.47,3588.56 "/>
    <polygon id="96" class="fil96" points="7242.17,3637.61 7242.01,3630.74 9429.19,3577.11 9429.36,3583.98 "/>
    <polygon id="97" class="fil97" points="7242.06,3633.03 7241.89,3626.17 9429.08,3572.53 9429.25,3579.4 "/>
    <polygon id="98" class="fil98" points="7241.95,3628.46 7241.78,3621.59 9428.97,3567.95 9429.13,3574.82 "/>
    <polygon id="99" class="fil99" points="7241.83,3623.88 7241.66,3617.02 9428.85,3563.38 9429.02,3570.24 "/>
    <polygon id="100" class="fil100" points="7241.73,3619.3 7241.56,3612.44 9428.74,3558.8 9428.91,3565.67 "/>
    <polygon id="101" class="fil101" points="7241.61,3614.73 7241.44,3607.86 9428.63,3554.23 9428.8,3561.09 "/>
    <polygon id="102" class="fil102" points="7241.5,3610.15 7241.33,3603.28 9428.52,3549.65 9428.69,3556.51 "/>
    <polygon id="103" class="fil103" points="7241.38,3605.57 7241.22,3598.7 9428.4,3545.07 9428.57,3551.94 "/>
    <polygon id="104" class="fil104" points="7241.28,3600.99 7241.1,3594.13 9428.29,3540.5 9428.46,3547.36 "/>
    <polygon id="105" class="fil105" points="7241.16,3596.41 7241,3589.55 9428.18,3535.92 9428.35,3542.79 "/>
    <polygon id="106" class="fil106" points="7241.05,3591.84 7240.88,3584.97 9428.07,3531.34 9428.24,3538.21 "/>
    <polygon id="107" class="fil107" points="7240.93,3587.26 7240.77,3580.4 9427.96,3526.76 9428.12,3533.63 "/>
    <polygon id="108" class="fil108" points="7240.83,3582.69 7240.65,3575.82 9427.84,3522.19 9428.01,3529.05 "/>
    <polygon id="109" class="fil109" points="7240.71,3578.11 7240.55,3571.25 9427.73,3517.61 9427.9,3524.47 "/>
    <polygon id="110" class="fil110" points="7240.6,3573.53 7240.43,3566.67 9427.62,3513.03 9427.79,3519.9 "/>
    <polygon id="111" class="fil111" points="7240.49,3568.96 7240.32,3562.09 9427.51,3508.46 9427.67,3515.32 "/>
    <polygon id="112" class="fil112" points="7240.38,3564.38 7240.2,3557.51 9427.39,3503.88 9427.56,3510.75 "/>
    <polygon id="113" class="fil113" points="7240.27,3559.8 7240.1,3552.93 9427.28,3499.31 9427.45,3506.17 "/>
    <polygon id="114" class="fil114" points="7240.15,3555.22 7239.99,3548.36 9427.17,3494.73 9427.34,3501.59 "/>
    <polygon id="115" class="fil115" points="7240.04,3550.65 7239.87,3543.78 9427.06,3490.15 9427.23,3497.02 "/>
    <polygon id="116" class="fil116" points="7239.92,3546.07 7239.76,3539.21 9426.94,3485.57 9427.11,3492.44 "/>
    <polygon id="117" class="fil117" points="7239.82,3541.49 7239.65,3534.63 9426.83,3480.99 9427,3487.86 "/>
    <polygon id="118" class="fil118" points="7239.7,3536.92 7239.54,3530.05 9426.72,3476.42 9426.89,3483.28 "/>
    <polygon id="119" class="fil119" points="7239.59,3532.34 7239.42,3525.48 9426.61,3471.84 9426.78,3478.7 "/>
    <polygon id="120" class="fil120" points="7239.47,3527.77 7239.31,3520.9 9426.5,3467.26 9426.66,3474.13 "/>
    <polygon id="121" class="fil121" points="7239.37,3523.19 7239.2,3516.32 9426.38,3462.69 9426.55,3469.55 "/>
    <polygon id="122" class="fil122" points="7239.26,3518.61 7239.09,3511.74 9426.27,3458.11 9426.44,3464.98 "/>
    <polygon id="123" class="fil123" points="7239.14,3514.03 7238.97,3507.16 9426.16,3453.54 9426.33,3460.4 "/>
    <polygon id="124" class="fil124" points="7239.03,3509.45 7238.86,3502.59 9426.05,3448.96 9426.22,3455.83 "/>
    <polygon id="125" class="fil125" points="7238.92,3504.88 7238.74,3498.01 9425.93,3444.38 9426.1,3451.25 "/>
    <polygon id="126" class="fil126" points="7238.81,3500.3 7238.64,3493.44 9425.82,3439.8 9425.99,3446.67 "/>
    <polygon id="127" class="fil127" points="7238.69,3495.72 7238.53,3488.86 9425.71,3435.22 9425.88,3442.09 "/>
    <polygon id="128" class="fil128" points="7238.58,3491.15 7238.41,3484.28 9425.6,3430.65 9425.77,3437.51 "/>
    <polygon id="129" class="fil129" points="7238.47,3486.57 7238.3,3479.71 9425.49,3426.07 9425.65,3432.94 "/>
    <polygon id="130" class="fil130" points="7238.36,3482 7238.19,3475.13 9425.37,3421.5 9425.54,3428.36 "/>
    <polygon id="131" class="fil131" points="7238.24,3477.42 7238.08,3470.55 9425.26,3416.92 9425.43,3423.78 "/>
    <polygon id="132" class="fil130" points="7238.13,3472.84 7237.96,3465.97 9425.15,3412.34 9425.32,3419.21 "/>
    <polygon id="133" class="fil132" points="7238.02,3468.26 7237.85,3461.4 9425.04,3407.77 9425.2,3414.63 "/>
    <polygon id="134" class="fil129" points="7237.91,3463.68 7237.74,3456.82 9424.92,3403.19 9425.09,3410.06 "/>
    <polygon id="135" class="fil129" points="7237.8,3459.11 7237.63,3452.24 9424.81,3398.61 9424.98,3405.48 "/>
    <polygon id="136" class="fil128" points="7237.68,3454.53 7237.51,3447.67 9424.7,3394.03 9424.87,3400.9 "/>
    <polygon id="137" class="fil133" points="7237.57,3449.96 7237.4,3443.09 9424.59,3389.45 9424.76,3396.32 "/>
    <polygon id="138" class="fil127" points="7237.46,3445.38 7237.29,3438.52 9424.47,3384.88 9424.64,3391.74 "/>
    <polygon id="139" class="fil126" points="7237.35,3440.8 7237.18,3433.94 9424.36,3380.3 9424.53,3387.17 "/>
    <polygon id="140" class="fil126" points="7237.23,3436.23 7237.07,3429.36 9424.26,3375.73 9424.42,3382.59 "/>
    <polygon id="141" class="fil125" points="7237.12,3431.65 7236.95,3424.78 9424.14,3371.15 9424.31,3378.02 "/>
    <polygon id="142" class="fil134" points="7237.01,3427.07 7236.84,3420.2 9424.03,3366.58 9424.19,3373.44 "/>
    <polygon id="143" class="fil124" points="7236.9,3422.49 7236.73,3415.63 9423.91,3362 9424.08,3368.86 "/>
    <polygon id="144" class="fil123" points="7236.78,3417.91 7236.62,3411.05 9423.81,3357.42 9423.97,3364.29 "/>
    <polygon id="145" class="fil135" points="7236.67,3413.34 7236.5,3406.47 9423.69,3352.84 9423.86,3359.71 "/>
    <polygon id="146" class="fil135" points="7236.56,3408.76 7236.39,3401.9 9423.58,3348.26 9423.74,3355.13 "/>
    <polygon id="147" class="fil122" points="7236.45,3404.19 7236.28,3397.32 9423.46,3343.69 9423.63,3350.55 "/>
    <polygon id="148" class="fil121" points="7236.34,3399.61 7236.17,3392.75 9423.35,3339.11 9423.53,3345.97 "/>
    <polygon id="149" class="fil136" points="7236.22,3395.03 7236.06,3388.17 9423.24,3334.53 9423.41,3341.4 "/>
    <polygon id="150" class="fil120" points="7236.11,3390.46 7235.94,3383.59 9423.13,3329.96 9423.3,3336.82 "/>
    <polygon id="151" class="fil120" points="7236,3385.88 7235.83,3379.01 9423.01,3325.38 9423.18,3332.25 "/>
    <polygon id="152" class="fil119" points="7235.89,3381.3 7235.72,3374.43 9422.9,3320.81 9423.08,3327.67 "/>
    <polygon id="153" class="fil118" points="7235.77,3376.72 7235.61,3369.86 9422.8,3316.23 9422.96,3323.09 "/>
    <polygon id="154" class="fil137" points="7235.66,3372.15 7235.49,3365.28 9422.68,3311.65 9422.85,3318.52 "/>
    <polygon id="155" class="fil117" points="7235.55,3367.57 7235.38,3360.71 9422.57,3307.07 9422.73,3313.94 "/>
    <polygon id="156" class="fil116" points="7235.44,3362.99 7235.27,3356.13 9422.45,3302.49 9422.63,3309.36 "/>
    <polygon id="157" class="fil116" points="7235.33,3358.42 7235.16,3351.55 9422.35,3297.92 9422.51,3304.78 "/>
    <polygon id="158" class="fil138" points="7235.21,3353.84 7235.04,3346.98 9422.23,3293.34 9422.4,3300.21 "/>
    <polygon id="159" class="fil115" points="7235.1,3349.27 7234.93,3342.4 9422.12,3288.77 9422.28,3295.63 "/>
    <polygon id="160" class="fil114" points="7234.99,3344.69 7234.82,3337.82 9422,3284.19 9422.17,3291.05 "/>
    <polygon id="161" class="fil139" points="7234.88,3340.11 7234.71,3333.24 9421.9,3279.61 9422.07,3286.48 "/>
    <polygon id="162" class="fil113" points="7234.76,3335.53 7234.6,3328.66 9421.78,3275.04 9421.95,3281.9 "/>
    <polygon id="163" class="fil113" points="7234.65,3330.95 7234.48,3324.09 9421.67,3270.46 9421.84,3277.33 "/>
    <polygon id="164" class="fil112" points="7234.54,3326.38 7234.37,3319.51 9421.56,3265.88 9421.72,3272.75 "/>
    <polygon id="165" class="fil111" points="7234.43,3321.8 7234.26,3314.94 9421.45,3261.3 9421.62,3268.17 "/>
    <polygon id="166" class="fil140" points="7234.31,3317.22 7234.15,3310.36 9421.34,3256.72 9421.5,3263.59 "/>
    <polygon id="167" class="fil110" points="7234.2,3312.65 7234.03,3305.79 9421.22,3252.15 9421.39,3259.01 "/>
    <polygon id="168" class="fil110" points="7234.09,3308.07 7233.92,3301.21 9421.11,3247.57 9421.27,3254.44 "/>
    <polygon id="169" class="fil109" points="7233.98,3303.5 7233.81,3296.63 9420.99,3243 9421.17,3249.86 "/>
    <polygon id="170" class="fil141" points="7233.87,3298.92 7233.7,3292.05 9420.89,3238.42 9421.05,3245.28 "/>
    <polygon id="171" class="fil108" points="7233.75,3294.34 7233.58,3287.47 9420.77,3233.84 9420.94,3240.71 "/>
    <polygon id="172" class="fil107" points="7233.64,3289.76 7233.47,3282.9 9420.66,3229.27 9420.83,3236.13 "/>
    <polygon id="173" class="fil142" points="7233.53,3285.18 7233.37,3278.32 9420.54,3224.69 9420.72,3231.56 "/>
    <polygon id="174" class="fil142" points="7233.42,3280.61 7233.25,3273.74 9420.44,3220.11 9420.61,3226.98 "/>
    <polygon id="175" class="fil106" points="7233.3,3276.03 7233.14,3269.17 9420.32,3215.53 9420.49,3222.4 "/>
    <polygon id="176" class="fil105" points="7233.19,3271.46 7233.02,3264.59 9420.21,3210.96 9420.38,3217.82 "/>
    <polygon id="177" class="fil104" points="7233.08,3266.88 7232.91,3260.02 9420.1,3206.38 9420.27,3213.24 "/>
    <polygon id="178" class="fil143" points="7232.97,3262.3 7232.8,3255.44 9419.99,3201.8 9420.16,3208.67 "/>
    <polygon id="179" class="fil103" points="7232.85,3257.73 7232.69,3250.85 9419.88,3197.23 9420.04,3204.09 "/>
    <polygon id="180" class="fil103" points="7232.74,3253.14 7232.57,3246.28 9419.76,3192.65 9419.93,3199.52 "/>
    <polygon id="181" class="fil102" points="7232.64,3248.57 7232.46,3241.7 9419.65,3188.08 9419.81,3194.94 "/>
    <polygon id="182" class="fil144" points="7232.52,3243.99 7232.35,3237.13 9419.54,3183.5 9419.71,3190.36 "/>
    <polygon id="183" class="fil101" points="7232.41,3239.41 7232.24,3232.55 9419.43,3178.92 9419.6,3185.79 "/>
    <polygon id="184" class="fil100" points="7232.29,3234.84 7232.13,3227.98 9419.31,3174.34 9419.48,3181.21 "/>
    <polygon id="185" class="fil100" points="7232.19,3230.26 7232.01,3223.4 9419.2,3169.76 9419.37,3176.63 "/>
    <polygon id="186" class="fil145" points="7232.07,3225.69 7231.91,3218.82 9419.09,3165.19 9419.26,3172.05 "/>
    <polygon id="187" class="fil99" points="7231.96,3221.11 7231.79,3214.24 9418.98,3160.61 9419.15,3167.47 "/>
    <polygon id="188" class="fil98" points="7231.84,3216.54 7231.68,3209.66 9418.87,3156.03 9419.03,3162.9 "/>
    <polygon id="189" class="fil97" points="7231.73,3211.95 7231.56,3205.09 9418.75,3151.46 9418.92,3158.32 "/>
    <polygon id="190" class="fil146" points="7231.62,3207.37 7231.46,3200.51 9418.64,3146.88 9418.81,3153.75 "/>
    <polygon id="191" class="fil146" points="7231.51,3202.8 7231.34,3195.93 9418.53,3142.31 9418.7,3149.17 "/>
    <polygon id="192" class="fil96" points="7231.4,3198.22 7231.23,3191.36 9418.42,3137.73 9418.58,3144.59 "/>
    <polygon id="193" class="fil95" points="7231.28,3193.65 7231.11,3186.78 9418.3,3133.15 9418.47,3140.02 "/>
    <polygon id="194" class="fil147" points="7231.18,3189.07 7231.01,3182.21 9418.19,3128.57 9418.36,3135.44 "/>
    <polygon id="195" class="fil94" points="7231.06,3184.49 7230.89,3177.63 9418.08,3123.99 9418.25,3130.86 "/>
    <polygon id="196" class="fil93" points="7230.95,3179.92 7230.78,3173.05 9417.97,3119.42 9418.14,3126.28 "/>
    <polygon id="197" class="fil93" points="7230.83,3175.34 7230.67,3168.47 9417.85,3114.84 9418.02,3121.71 "/>
    <polygon id="198" class="fil92" points="7230.73,3170.76 7230.55,3163.89 9417.74,3110.27 9417.91,3117.13 "/>
    <polygon id="199" class="fil148" points="7230.61,3166.18 7230.45,3159.32 9417.63,3105.69 9417.8,3112.55 "/>
    <polygon id="200" class="fil91" points="7230.5,3161.6 7230.33,3154.74 9417.52,3101.11 9417.69,3107.98 "/>
    <polygon id="201" class="fil90" points="7230.38,3157.03 7230.22,3150.17 9417.41,3096.54 9417.57,3103.4 "/>
    <polygon id="202" class="fil90" points="7230.28,3152.45 7230.1,3145.59 9417.29,3091.96 9417.46,3098.83 "/>
    <polygon id="203" class="fil149" points="7230.17,3147.88 7230,3141.01 9417.18,3087.38 9417.35,3094.25 "/>
    <polygon id="204" class="fil89" points="7230.05,3143.3 7229.88,3136.44 9417.07,3082.8 9417.24,3089.67 "/>
    <polygon id="205" class="fil88" points="7229.94,3138.73 7229.77,3131.86 9416.96,3078.22 9417.12,3085.09 "/>
    <polygon id="206" class="fil150" points="7229.83,3134.15 7229.65,3127.28 9416.84,3073.65 9417.01,3080.51 "/>
    <polygon id="207" class="fil87" points="7229.72,3129.57 7229.55,3122.7 9416.73,3069.07 9416.9,3075.94 "/>
    <polygon id="208" class="fil87" points="7229.6,3124.99 7229.44,3118.12 9416.62,3064.5 9416.79,3071.36 "/>
    <polygon id="209" class="fil86" points="7229.49,3120.41 7229.32,3113.55 9416.51,3059.92 9416.68,3066.78 "/>
    <polygon id="210" class="fil85" points="7229.37,3115.84 7229.21,3108.97 9416.39,3055.35 9416.56,3062.21 "/>
    <polygon id="211" class="fil151" points="7229.27,3111.26 7229.1,3104.4 9416.28,3050.77 9416.45,3057.63 "/>
    <polygon id="212" class="fil84" points="7229.15,3106.68 7228.99,3099.82 9416.17,3046.19 9416.34,3053.06 "/>
    <polygon id="213" class="fil83" points="7229.04,3102.11 7228.87,3095.24 9416.06,3041.61 9416.23,3048.48 "/>
    <polygon id="214" class="fil83" points="7228.92,3097.53 7228.76,3090.67 9415.95,3037.03 9416.11,3043.9 "/>
    <polygon id="215" class="fil152" points="7228.82,3092.96 7228.65,3086.09 9415.83,3032.46 9416,3039.32 "/>
    <polygon id="216" class="fil82" points="7228.71,3088.38 7228.54,3081.51 9415.72,3027.88 9415.89,3034.74 "/>
    <polygon id="217" class="fil81" points="7228.59,3083.8 7228.42,3076.93 9415.61,3023.3 9415.78,3030.17 "/>
    <polygon id="218" class="fil153" points="7228.48,3079.22 7228.31,3072.36 9415.5,3018.73 9415.67,3025.59 "/>
    <polygon id="219" class="fil153" points="7228.37,3074.64 7228.2,3067.78 9415.38,3014.15 9415.55,3021.02 "/>
    <polygon id="220" class="fil80" points="7228.26,3070.07 7228.09,3063.2 9415.27,3009.58 9415.44,3016.44 "/>
    <polygon id="221" class="fil79" points="7228.14,3065.49 7227.98,3058.63 9415.16,3005 9415.33,3011.86 "/>
    <polygon id="222" class="fil78" points="7228.03,3060.92 7227.86,3054.05 9415.05,3000.42 9415.22,3007.29 "/>
    <polygon id="223" class="fil154" points="7227.92,3056.34 7227.75,3049.48 9414.94,2995.84 9415.1,3002.71 "/>
    <polygon id="224" class="fil77" points="7227.81,3051.76 7227.64,3044.9 9414.82,2991.26 9414.99,2998.13 "/>
    <polygon id="225" class="fil77" points="7227.69,3047.19 7227.53,3040.32 9414.71,2986.69 9414.88,2993.55 "/>
    <polygon id="226" class="fil76" points="7227.58,3042.61 7227.41,3035.74 9414.6,2982.11 9414.77,2988.97 "/>
    <polygon id="227" class="fil155" points="7227.47,3038.03 7227.3,3031.16 9414.49,2977.54 9414.65,2984.4 "/>
    <polygon id="228" class="fil75" points="7227.36,3033.45 7227.19,3026.59 9414.37,2972.96 9414.54,2979.82 "/>
    <polygon id="229" class="fil74" points="7227.25,3028.87 7227.08,3022.01 9414.26,2968.38 9414.43,2975.25 "/>
    <polygon id="230" class="fil74" points="7227.13,3024.3 7226.96,3017.43 9414.15,2963.81 9414.32,2970.67 "/>
    <polygon id="231" class="fil156" points="7227.02,3019.72 7226.85,3012.86 9414.04,2959.23 9414.21,2966.1 "/>
    <polygon id="232" class="fil73" points="7226.91,3015.15 7226.74,3008.28 9413.92,2954.65 9414.09,2961.52 "/>
    <polygon id="233" class="fil72" points="7226.8,3010.57 7226.63,3003.71 9413.81,2950.07 9413.99,2956.94 "/>
    <polygon id="234" class="fil71" points="7226.68,3005.99 7226.52,2999.13 9413.71,2945.49 9413.87,2952.36 "/>
    <polygon id="235" class="fil157" points="7226.57,3001.42 7226.4,2994.55 9413.59,2940.92 9413.76,2947.78 "/>
    <polygon id="236" class="fil157" points="7226.46,2996.84 7226.29,2989.97 9413.48,2936.34 9413.64,2943.21 "/>
    <polygon id="237" class="fil70" points="7226.35,2992.26 7226.18,2985.39 9413.36,2931.77 9413.53,2938.63 "/>
    <polygon id="238" class="fil69" points="7226.24,2987.68 7226.07,2980.82 9413.26,2927.19 9413.42,2934.05 "/>
    <polygon id="239" class="fil158" points="7226.12,2983.11 7225.95,2976.24 9413.14,2922.61 9413.31,2929.48 "/>
    <polygon id="240" class="fil68" points="7226.01,2978.53 7225.84,2971.67 9413.03,2918.04 9413.19,2924.9 "/>
    <polygon id="241" class="fil67" points="7225.9,2973.95 7225.73,2967.09 9412.91,2913.46 9413.08,2920.33 "/>
    <polygon id="242" class="fil67" points="7225.79,2969.38 7225.62,2962.51 9412.81,2908.88 9412.98,2915.75 "/>
    <polygon id="243" class="fil159" points="7225.67,2964.8 7225.51,2957.94 9412.69,2904.3 9412.86,2911.17 "/>
    <polygon id="244" class="fil66" points="7225.56,2960.23 7225.39,2953.36 9412.58,2899.73 9412.75,2906.59 "/>
    <polygon id="245" class="fil65" points="7225.45,2955.65 7225.28,2948.78 9412.46,2895.15 9412.63,2902.01 "/>
    <polygon id="246" class="fil64" points="7225.34,2951.07 7225.17,2944.2 9412.35,2890.57 9412.53,2897.44 "/>
    <polygon id="247" class="fil64" points="7225.22,2946.49 7225.06,2939.62 9412.25,2886 9412.41,2892.86 "/>
    <polygon id="248" class="fil160" points="7225.11,2941.91 7224.94,2935.05 9412.13,2881.42 9412.3,2888.29 "/>
    <polygon id="249" class="fil63" points="7225,2937.34 7224.83,2930.47 9412.02,2876.85 9412.18,2883.71 "/>
    <polygon id="250" class="fil62" points="7224.89,2932.76 7224.72,2925.9 9411.9,2872.27 9412.08,2879.13 "/>
    <polygon id="251" class="fil161" points="7224.78,2928.18 7224.61,2921.32 9411.8,2867.68 9411.96,2874.56 "/>
    <polygon id="252" class="fil61" points="7224.66,2923.61 7224.49,2916.75 9411.68,2863.11 9411.85,2869.97 "/>
    <polygon id="253" class="fil61" points="7224.55,2919.03 7224.38,2912.17 9411.57,2858.53 9411.74,2865.4 "/>
    <polygon id="254" class="fil60" points="7224.44,2914.46 7224.27,2907.59 9411.45,2853.96 9411.63,2860.82 "/>
    <polygon id="255" class="fil59" points="7224.33,2909.88 7224.16,2903.01 9411.35,2849.38 9411.52,2856.24 "/>
    <polygon id="256" class="fil162" points="7224.21,2905.3 7224.05,2898.43 9411.23,2844.8 9411.4,2851.67 "/>
    <polygon id="257" class="fil58" points="7224.1,2900.72 7223.93,2893.86 9411.12,2840.23 9411.29,2847.09 "/>
    <polygon id="258" class="fil57" points="7223.99,2896.14 7223.82,2889.28 9411.01,2835.65 9411.17,2842.52 "/>
    <polygon id="259" class="fil57" points="7223.88,2891.57 7223.71,2884.7 9410.9,2831.08 9411.07,2837.94 "/>
    <polygon id="260" class="fil163" points="7223.76,2886.99 7223.6,2880.13 9410.79,2826.49 9410.95,2833.36 "/>
    <polygon id="261" class="fil56" points="7223.65,2882.42 7223.48,2875.55 9410.67,2821.92 9410.84,2828.78 "/>
    <polygon id="262" class="fil163" points="7223.55,2877.84 7223.37,2870.98 9410.56,2817.34 9410.72,2824.2 "/>
    <polygon id="263" class="fil57" points="7223.43,2873.26 7223.26,2866.4 9410.45,2812.76 9410.62,2819.63 "/>
    <polygon id="264" class="fil57" points="7223.32,2868.69 7223.15,2861.82 9410.34,2808.19 9410.5,2815.05 "/>
    <polygon id="265" class="fil58" points="7223.2,2864.11 7223.03,2857.24 9410.22,2803.61 9410.39,2810.48 "/>
    <polygon id="266" class="fil162" points="7223.09,2859.53 7222.92,2852.66 9410.11,2799.04 9410.28,2805.9 "/>
    <polygon id="267" class="fil59" points="7222.98,2854.95 7222.82,2848.09 9409.99,2794.46 9410.17,2801.32 "/>
    <polygon id="268" class="fil60" points="7222.87,2850.37 7222.93,2853.12 9410.12,2799.49 9410.06,2796.75 "/>
   </g>
   <path id="269" class="fil0 str4" d="M7356.76 2851.27l1949.47 0c58.49,0 106.33,47.84 106.33,106.33l0 958.53c0,58.49 -47.84,106.33 -106.33,106.33l-1949.47 0c-58.49,0 -106.33,-47.84 -106.33,-106.33l0 -958.53c0,-58.49 47.84,-106.33 106.33,-106.33z"/>
  </g>
  <g>
   <g style="clip-path:url(#id1)">
    <polygon class="fil6" points="8201.63,4180.98 8200.72,4176.72 8755.86,4056.86 8756.78,4061.14 "/>
    <polygon id="1" class="fil7" points="8201.27,4179.28 8199.61,4171.58 8754.75,4051.73 8756.41,4059.43 "/>
    <polygon id="2" class="fil8" points="8200.16,4174.15 8198.5,4166.45 8753.64,4046.6 8755.31,4054.29 "/>
    <polygon id="3" class="fil9" points="8199.06,4169.01 8197.39,4161.32 8752.54,4041.47 8754.2,4049.16 "/>
    <polygon id="4" class="fil10" points="8197.95,4163.88 8196.29,4156.19 8751.43,4036.34 8753.09,4044.03 "/>
    <polygon id="5" class="fil11" points="8196.84,4158.75 8195.18,4151.06 8750.32,4031.21 8751.98,4038.9 "/>
    <polygon id="6" class="fil12" points="8195.73,4153.62 8194.07,4145.93 8749.22,4026.08 8750.88,4033.77 "/>
    <polygon id="7" class="fil11" points="8194.62,4148.49 8192.96,4140.8 8748.1,4020.94 8749.77,4028.64 "/>
    <polygon id="8" class="fil10" points="8193.51,4143.36 8191.85,4135.66 8746.99,4015.81 8748.66,4023.51 "/>
    <polygon id="9" class="fil9" points="8192.4,4138.23 8190.74,4130.53 8745.89,4010.68 8747.55,4018.37 "/>
    <polygon id="10" class="fil8" points="8191.3,4133.1 8189.63,4125.39 8744.78,4005.55 8746.44,4013.24 "/>
    <polygon id="11" class="fil7" points="8190.19,4127.96 8188.53,4120.26 8743.67,4000.42 8745.33,4008.11 "/>
    <polygon id="12" class="fil6" points="8189.08,4122.83 8187.42,4115.13 8742.56,3995.29 8744.22,4002.98 "/>
    <polygon id="13" class="fil13" points="8187.97,4117.7 8186.31,4110 8741.46,3990.16 8743.12,3997.85 "/>
    <polygon id="14" class="fil14" points="8186.87,4112.57 8185.21,4104.87 8740.35,3985.03 8742.01,3992.72 "/>
    <polygon id="15" class="fil15" points="8185.76,4107.44 8184.1,4099.74 8739.24,3979.89 8740.9,3987.59 "/>
    <polygon id="16" class="fil16" points="8184.65,4102.31 8182.99,4094.61 8738.14,3974.76 8739.8,3982.46 "/>
    <polygon id="17" class="fil17" points="8183.55,4097.18 8181.89,4089.48 8737.03,3969.63 8738.69,3977.32 "/>
    <polygon id="18" class="fil18" points="8182.44,4092.04 8180.78,4084.34 8735.92,3964.5 8737.58,3972.19 "/>
    <polygon id="19" class="fil19" points="8181.33,4086.91 8179.67,4079.21 8734.81,3959.36 8736.48,3967.06 "/>
    <polygon id="20" class="fil20" points="8180.22,4081.78 8178.56,4074.08 8733.7,3954.23 8735.37,3961.93 "/>
    <polygon id="21" class="fil21" points="8179.11,4076.65 8177.45,4068.95 8732.59,3949.1 8734.26,3956.8 "/>
    <polygon id="22" class="fil22" points="8178,4071.52 8176.34,4063.82 8731.48,3943.97 8733.15,3951.67 "/>
    <polygon id="23" class="fil23" points="8176.89,4066.39 8175.23,4058.69 8730.38,3938.84 8732.04,3946.54 "/>
    <polygon id="24" class="fil24" points="8175.79,4061.26 8174.13,4053.56 8729.27,3933.7 8730.93,3941.41 "/>
    <polygon id="25" class="fil25" points="8174.68,4056.13 8173.02,4048.43 8728.16,3928.57 8729.82,3936.27 "/>
    <polygon id="26" class="fil26" points="8173.57,4050.99 8171.91,4043.29 8727.05,3923.44 8728.72,3931.14 "/>
    <polygon id="27" class="fil27" points="8172.47,4045.86 8170.8,4038.16 8725.95,3918.31 8727.61,3926.01 "/>
    <polygon id="28" class="fil28" points="8171.36,4040.73 8169.7,4033.03 8724.84,3913.18 8726.5,3920.88 "/>
    <polygon id="29" class="fil29" points="8170.25,4035.6 8168.59,4027.9 8723.73,3908.05 8725.39,3915.75 "/>
    <polygon id="30" class="fil30" points="8169.14,4030.46 8167.48,4022.77 8722.63,3902.92 8724.29,3910.62 "/>
    <polygon id="31" class="fil31" points="8168.04,4025.33 8166.38,4017.64 8721.52,3897.79 8723.18,3905.49 "/>
    <polygon id="32" class="fil32" points="8166.93,4020.2 8165.26,4012.51 8720.41,3892.65 8722.07,3900.36 "/>
    <polygon id="33" class="fil33" points="8165.82,4015.07 8164.15,4007.37 8719.3,3887.52 8720.97,3895.22 "/>
    <polygon id="34" class="fil34" points="8164.71,4009.94 8163.04,4002.24 8718.19,3882.39 8719.86,3890.09 "/>
    <polygon id="35" class="fil35" points="8163.6,4004.81 8161.94,3997.11 8717.08,3877.26 8718.75,3884.96 "/>
    <polygon id="36" class="fil36" points="8162.49,3999.67 8160.83,3991.98 8715.97,3872.13 8717.64,3879.83 "/>
    <polygon id="37" class="fil37" points="8161.38,3994.54 8159.72,3986.85 8714.87,3867 8716.53,3874.7 "/>
    <polygon id="38" class="fil38" points="8160.28,3989.41 8158.62,3981.72 8713.76,3861.87 8715.42,3869.57 "/>
    <polygon id="39" class="fil39" points="8159.17,3984.28 8157.51,3976.59 8712.65,3856.74 8714.31,3864.44 "/>
    <polygon id="40" class="fil40" points="8158.06,3979.15 8156.4,3971.46 8711.55,3851.6 8713.21,3859.3 "/>
    <polygon id="41" class="fil41" points="8156.96,3974.02 8155.3,3966.32 8710.44,3846.47 8712.1,3854.17 "/>
    <polygon id="42" class="fil42" points="8155.85,3968.89 8154.19,3961.19 8709.33,3841.34 8710.99,3849.03 "/>
    <polygon id="43" class="fil43" points="8154.74,3963.75 8153.08,3956.06 8708.22,3836.21 8709.89,3843.9 "/>
    <polygon id="44" class="fil44" points="8153.63,3958.62 8151.97,3950.93 8707.12,3831.08 8708.78,3838.77 "/>
    <polygon id="45" class="fil45" points="8152.53,3953.49 8150.86,3945.8 8706.01,3825.95 8707.67,3833.64 "/>
    <polygon id="46" class="fil46" points="8151.42,3948.36 8149.75,3940.67 8704.9,3820.82 8706.56,3828.51 "/>
    <polygon id="47" class="fil47" points="8150.31,3943.23 8148.64,3935.54 8703.79,3815.69 8705.46,3823.38 "/>
    <polygon id="48" class="fil48" points="8149.2,3938.1 8147.54,3930.41 8702.68,3810.55 8704.35,3818.25 "/>
    <polygon id="49" class="fil49" points="8148.09,3932.97 8146.43,3925.27 8701.57,3805.42 8703.24,3813.12 "/>
    <polygon id="50" class="fil50" points="8146.98,3927.84 8145.32,3920.14 8700.46,3800.29 8702.13,3807.98 "/>
    <polygon id="51" class="fil51" points="8145.88,3922.7 8144.21,3915 8699.36,3795.16 8701.02,3802.85 "/>
    <polygon id="52" class="fil52" points="8144.77,3917.57 8143.11,3909.87 8698.25,3790.03 8699.91,3797.72 "/>
    <polygon id="53" class="fil53" points="8143.66,3912.44 8142,3904.74 8697.14,3784.9 8698.8,3792.59 "/>
    <polygon id="54" class="fil54" points="8142.55,3907.31 8140.89,3899.61 8696.04,3779.77 8697.7,3787.46 "/>
    <polygon id="55" class="fil55" points="8141.45,3902.18 8139.79,3894.48 8694.93,3774.63 8696.59,3782.33 "/>
    <polygon id="56" class="fil56" points="8140.34,3897.05 8138.68,3889.35 8693.82,3769.5 8695.48,3777.2 "/>
    <polygon id="57" class="fil57" points="8139.23,3891.92 8137.57,3884.22 8692.72,3764.37 8694.38,3772.07 "/>
    <polygon id="58" class="fil58" points="8138.13,3886.79 8136.46,3879.08 8691.61,3759.24 8693.27,3766.93 "/>
    <polygon id="59" class="fil59" points="8137.02,3881.65 8135.35,3873.95 8690.5,3754.11 8692.16,3761.8 "/>
    <polygon id="60" class="fil60" points="8135.91,3876.52 8134.24,3868.82 8689.39,3748.98 8691.05,3756.67 "/>
    <polygon id="61" class="fil61" points="8134.8,3871.39 8133.13,3863.69 8688.28,3743.84 8689.95,3751.54 "/>
    <polygon id="62" class="fil62" points="8133.69,3866.26 8132.03,3858.56 8687.17,3738.71 8688.84,3746.41 "/>
    <polygon id="63" class="fil63" points="8132.58,3861.13 8130.92,3853.43 8686.06,3733.58 8687.72,3741.28 "/>
    <polygon id="64" class="fil64" points="8131.47,3856 8129.81,3848.3 8684.96,3728.45 8686.62,3736.15 "/>
    <polygon id="65" class="fil65" points="8130.37,3850.87 8128.71,3843.17 8683.85,3723.31 8685.51,3731.01 "/>
    <polygon id="66" class="fil66" points="8129.26,3845.74 8127.6,3838.03 8682.74,3718.18 8684.4,3725.88 "/>
    <polygon id="67" class="fil67" points="8128.15,3840.6 8126.49,3832.9 8681.63,3713.05 8683.3,3720.75 "/>
    <polygon id="68" class="fil68" points="8127.04,3835.47 8125.38,3827.77 8680.53,3707.92 8682.19,3715.62 "/>
    <polygon id="69" class="fil69" points="8125.94,3830.34 8124.28,3822.64 8679.42,3702.79 8681.08,3710.49 "/>
    <polygon id="70" class="fil70" points="8124.83,3825.21 8123.17,3817.51 8678.31,3697.66 8679.97,3705.36 "/>
    <polygon id="71" class="fil71" points="8123.72,3820.08 8122.06,3812.38 8677.21,3692.53 8678.87,3700.23 "/>
    <polygon id="72" class="fil72" points="8122.62,3814.94 8120.95,3807.25 8676.1,3687.4 8677.76,3695.1 "/>
    <polygon id="73" class="fil73" points="8121.51,3809.81 8119.84,3802.12 8674.99,3682.26 8676.65,3689.96 "/>
    <polygon id="74" class="fil74" points="8120.4,3804.68 8118.73,3796.98 8673.88,3677.13 8675.54,3684.83 "/>
    <polygon id="75" class="fil75" points="8119.29,3799.55 8117.62,3791.85 8672.77,3672 8674.43,3679.7 "/>
    <polygon id="76" class="fil76" points="8118.18,3794.41 8116.52,3786.72 8671.66,3666.87 8673.32,3674.57 "/>
    <polygon id="77" class="fil77" points="8117.07,3789.28 8115.41,3781.59 8670.55,3661.74 8672.21,3669.44 "/>
    <polygon id="78" class="fil78" points="8115.96,3784.15 8114.3,3776.46 8669.45,3656.61 8671.11,3664.31 "/>
    <polygon id="79" class="fil79" points="8114.86,3779.02 8113.2,3771.33 8668.34,3651.48 8670,3659.18 "/>
    <polygon id="80" class="fil80" points="8113.75,3773.89 8112.09,3766.2 8667.23,3646.34 8668.89,3654.05 "/>
    <polygon id="81" class="fil81" points="8112.64,3768.76 8110.98,3761.07 8666.13,3641.21 8667.79,3648.91 "/>
    <polygon id="82" class="fil82" points="8111.54,3763.63 8109.88,3755.93 8665.02,3636.08 8666.68,3643.78 "/>
    <polygon id="83" class="fil83" points="8110.43,3758.5 8108.77,3750.8 8663.91,3630.95 8665.57,3638.64 "/>
    <polygon id="84" class="fil84" points="8109.32,3753.36 8107.66,3745.67 8662.8,3625.82 8664.46,3633.51 "/>
    <polygon id="85" class="fil85" points="8108.21,3748.23 8106.55,3740.54 8661.7,3620.69 8663.36,3628.38 "/>
    <polygon id="86" class="fil86" points="8107.11,3743.1 8105.44,3735.41 8660.59,3615.56 8662.25,3623.25 "/>
    <polygon id="87" class="fil87" points="8106,3737.97 8104.33,3730.28 8659.48,3610.43 8661.14,3618.12 "/>
    <polygon id="88" class="fil88" points="8104.88,3732.84 8103.22,3725.15 8658.37,3605.29 8660.03,3612.99 "/>
    <polygon id="89" class="fil89" points="8103.78,3727.71 8102.12,3720.01 8657.26,3600.16 8658.92,3607.86 "/>
    <polygon id="90" class="fil90" points="8102.67,3722.58 8101.01,3714.88 8656.15,3595.03 8657.81,3602.72 "/>
    <polygon id="91" class="fil91" points="8101.56,3717.45 8099.9,3709.75 8655.04,3589.9 8656.71,3597.59 "/>
    <polygon id="92" class="fil92" points="8100.45,3712.31 8098.79,3704.61 8653.94,3584.77 8655.6,3592.46 "/>
    <polygon id="93" class="fil93" points="8099.35,3707.18 8097.69,3699.48 8652.83,3579.64 8654.49,3587.33 "/>
    <polygon id="94" class="fil94" points="8098.24,3702.05 8096.58,3694.35 8651.72,3574.51 8653.38,3582.2 "/>
    <polygon id="95" class="fil95" points="8097.13,3696.92 8095.47,3689.22 8650.62,3569.38 8652.28,3577.07 "/>
    <polygon id="96" class="fil96" points="8096.03,3691.79 8094.37,3684.09 8649.51,3564.24 8651.17,3571.94 "/>
    <polygon id="97" class="fil97" points="8094.92,3686.66 8093.26,3678.96 8648.4,3559.11 8650.06,3566.81 "/>
    <polygon id="98" class="fil98" points="8093.81,3681.53 8092.15,3673.83 8647.3,3553.98 8648.96,3561.67 "/>
    <polygon id="99" class="fil99" points="8092.7,3676.39 8091.04,3668.69 8646.19,3548.85 8647.85,3556.54 "/>
    <polygon id="100" class="fil100" points="8091.59,3671.26 8089.93,3663.56 8645.08,3543.72 8646.74,3551.41 "/>
    <polygon id="101" class="fil101" points="8090.48,3666.13 8088.82,3658.43 8643.97,3538.59 8645.63,3546.28 "/>
    <polygon id="102" class="fil102" points="8089.37,3661 8087.71,3653.3 8642.86,3533.46 8644.52,3541.15 "/>
    <polygon id="103" class="fil103" points="8088.27,3655.87 8086.61,3648.17 8641.75,3528.32 8643.41,3536.02 "/>
    <polygon id="104" class="fil104" points="8087.16,3650.74 8085.5,3643.04 8640.64,3523.19 8642.3,3530.89 "/>
    <polygon id="105" class="fil105" points="8086.05,3645.61 8084.39,3637.91 8639.54,3518.05 8641.2,3525.76 "/>
    <polygon id="106" class="fil106" points="8084.95,3640.48 8083.29,3632.78 8638.43,3512.92 8640.09,3520.62 "/>
    <polygon id="107" class="fil107" points="8083.84,3635.34 8082.18,3627.64 8637.32,3507.79 8638.98,3515.49 "/>
    <polygon id="108" class="fil108" points="8082.73,3630.21 8081.07,3622.51 8636.21,3502.66 8637.87,3510.36 "/>
    <polygon id="109" class="fil109" points="8081.62,3625.08 8079.96,3617.38 8635.11,3497.53 8636.77,3505.23 "/>
    <polygon id="110" class="fil110" points="8080.52,3619.95 8078.86,3612.25 8634,3492.4 8635.66,3500.1 "/>
    <polygon id="111" class="fil111" points="8079.41,3614.82 8077.75,3607.12 8632.89,3487.27 8634.55,3494.97 "/>
    <polygon id="112" class="fil112" points="8078.3,3609.69 8076.64,3601.99 8631.79,3482.14 8633.45,3489.84 "/>
    <polygon id="113" class="fil113" points="8077.19,3604.56 8075.53,3596.86 8630.68,3477 8632.34,3484.71 "/>
    <polygon id="114" class="fil114" points="8076.08,3599.42 8074.42,3591.72 8629.57,3471.87 8631.23,3479.57 "/>
    <polygon id="115" class="fil115" points="8074.97,3594.29 8073.31,3586.59 8628.46,3466.74 8630.12,3474.44 "/>
    <polygon id="116" class="fil116" points="8073.87,3589.16 8072.2,3581.46 8627.35,3461.61 8629.01,3469.31 "/>
    <polygon id="117" class="fil117" points="8072.76,3584.02 8071.1,3576.33 8626.24,3456.48 8627.9,3464.18 "/>
    <polygon id="118" class="fil118" points="8071.65,3578.89 8069.99,3571.2 8625.13,3451.35 8626.79,3459.05 "/>
    <polygon id="119" class="fil119" points="8070.54,3573.76 8068.88,3566.07 8624.03,3446.22 8625.69,3453.92 "/>
    <polygon id="120" class="fil120" points="8069.44,3568.63 8067.78,3560.94 8622.92,3441.09 8624.58,3448.79 "/>
    <polygon id="121" class="fil121" points="8068.33,3563.5 8066.67,3555.81 8621.81,3435.95 8623.47,3443.65 "/>
    <polygon id="122" class="fil122" points="8067.22,3558.37 8065.56,3550.67 8620.71,3430.82 8622.37,3438.52 "/>
    <polygon id="123" class="fil123" points="8066.12,3553.24 8064.45,3545.54 8619.6,3425.69 8621.26,3433.39 "/>
    <polygon id="124" class="fil124" points="8065.01,3548.1 8063.35,3540.41 8618.49,3420.56 8620.15,3428.26 "/>
    <polygon id="125" class="fil125" points="8063.9,3542.97 8062.24,3535.28 8617.38,3415.43 8619.04,3423.12 "/>
    <polygon id="126" class="fil126" points="8062.79,3537.84 8061.13,3530.15 8616.28,3410.3 8617.94,3417.99 "/>
    <polygon id="127" class="fil127" points="8061.68,3532.71 8060.02,3525.02 8615.16,3405.17 8616.83,3412.86 "/>
    <polygon id="128" class="fil128" points="8060.57,3527.58 8058.91,3519.89 8614.05,3400.03 8615.72,3407.73 "/>
    <polygon id="129" class="fil129" points="8059.46,3522.45 8057.8,3514.76 8612.95,3394.9 8614.61,3402.6 "/>
    <polygon id="130" class="fil130" points="8058.36,3517.32 8056.7,3509.62 8611.84,3389.77 8613.5,3397.47 "/>
    <polygon id="131" class="fil131" points="8057.25,3512.19 8055.59,3504.49 8610.73,3384.64 8612.39,3392.33 "/>
    <polygon id="132" class="fil130" points="8056.14,3507.05 8054.48,3499.36 8609.62,3379.51 8611.29,3387.2 "/>
    <polygon id="133" class="fil132" points="8055.03,3501.92 8053.37,3494.23 8608.52,3374.38 8610.18,3382.07 "/>
    <polygon id="134" class="fil129" points="8053.93,3496.79 8052.27,3489.09 8607.41,3369.25 8609.07,3376.94 "/>
    <polygon id="135" class="fil129" points="8052.82,3491.66 8051.16,3483.96 8606.3,3364.12 8607.96,3371.81 "/>
    <polygon id="136" class="fil128" points="8051.71,3486.53 8050.05,3478.83 8605.2,3358.98 8606.86,3366.68 "/>
    <polygon id="137" class="fil133" points="8050.61,3481.4 8048.95,3473.7 8604.09,3353.85 8605.75,3361.55 "/>
    <polygon id="138" class="fil127" points="8049.5,3476.27 8047.84,3468.57 8602.98,3348.72 8604.64,3356.42 "/>
    <polygon id="139" class="fil126" points="8048.39,3471.14 8046.73,3463.43 8601.87,3343.59 8603.54,3351.28 "/>
    <polygon id="140" class="fil126" points="8047.28,3466 8045.62,3458.3 8600.76,3338.46 8602.43,3346.15 "/>
    <polygon id="141" class="fil125" points="8046.17,3460.87 8044.51,3453.17 8599.65,3333.33 8601.32,3341.02 "/>
    <polygon id="142" class="fil134" points="8045.06,3455.74 8043.4,3448.04 8598.54,3328.2 8600.21,3335.89 "/>
    <polygon id="143" class="fil124" points="8043.95,3450.61 8042.29,3442.91 8597.44,3323.07 8599.1,3330.76 "/>
    <polygon id="144" class="fil123" points="8042.85,3445.48 8041.19,3437.78 8596.33,3317.93 8597.99,3325.63 "/>
    <polygon id="145" class="fil135" points="8041.74,3440.35 8040.08,3432.65 8595.22,3312.8 8596.88,3320.5 "/>
    <polygon id="146" class="fil135" points="8040.63,3435.22 8038.97,3427.52 8594.12,3307.66 8595.78,3315.36 "/>
    <polygon id="147" class="fil122" points="8039.53,3430.09 8037.86,3422.38 8593.01,3302.53 8594.67,3310.23 "/>
    <polygon id="148" class="fil121" points="8038.42,3424.95 8036.76,3417.25 8591.9,3297.4 8593.56,3305.1 "/>
    <polygon id="149" class="fil136" points="8037.31,3419.82 8035.65,3412.12 8590.79,3292.27 8592.45,3299.97 "/>
    <polygon id="150" class="fil120" points="8036.2,3414.69 8034.54,3406.99 8589.69,3287.14 8591.35,3294.84 "/>
    <polygon id="151" class="fil120" points="8035.1,3409.56 8033.43,3401.86 8588.58,3282.01 8590.24,3289.71 "/>
    <polygon id="152" class="fil119" points="8033.99,3404.43 8032.32,3396.73 8587.47,3276.88 8589.13,3284.58 "/>
    <polygon id="153" class="fil118" points="8032.88,3399.3 8031.21,3391.6 8586.36,3271.74 8588.03,3279.45 "/>
    <polygon id="154" class="fil137" points="8031.77,3394.17 8030.11,3386.47 8585.25,3266.61 8586.92,3274.31 "/>
    <polygon id="155" class="fil117" points="8030.66,3389.03 8029,3381.33 8584.14,3261.48 8585.81,3269.18 "/>
    <polygon id="156" class="fil116" points="8029.55,3383.9 8027.89,3376.2 8583.03,3256.35 8584.7,3264.05 "/>
    <polygon id="157" class="fil116" points="8028.44,3378.76 8026.78,3371.07 8581.93,3251.22 8583.59,3258.92 "/>
    <polygon id="158" class="fil138" points="8027.34,3373.63 8025.68,3365.94 8580.82,3246.09 8582.48,3253.79 "/>
    <polygon id="159" class="fil115" points="8026.23,3368.5 8024.57,3360.81 8579.71,3240.96 8581.37,3248.66 "/>
    <polygon id="160" class="fil114" points="8025.12,3363.37 8023.46,3355.68 8578.61,3235.83 8580.27,3243.53 "/>
    <polygon id="161" class="fil139" points="8024.02,3358.24 8022.36,3350.55 8577.5,3230.69 8579.16,3238.4 "/>
    <polygon id="162" class="fil113" points="8022.91,3353.11 8021.25,3345.42 8576.39,3225.56 8578.05,3233.26 "/>
    <polygon id="163" class="fil113" points="8021.8,3347.98 8020.14,3340.28 8575.28,3220.43 8576.95,3228.13 "/>
    <polygon id="164" class="fil112" points="8020.7,3342.85 8019.03,3335.15 8574.18,3215.3 8575.84,3223 "/>
    <polygon id="165" class="fil111" points="8019.59,3337.71 8017.92,3330.02 8573.07,3210.17 8574.73,3217.87 "/>
    <polygon id="166" class="fil140" points="8018.48,3332.58 8016.81,3324.89 8571.96,3205.04 8573.62,3212.74 "/>
    <polygon id="167" class="fil110" points="8017.37,3327.45 8015.7,3319.76 8570.85,3199.91 8572.52,3207.6 "/>
    <polygon id="168" class="fil110" points="8016.26,3322.32 8014.6,3314.63 8569.74,3194.78 8571.41,3202.47 "/>
    <polygon id="169" class="fil109" points="8015.15,3317.19 8013.49,3309.5 8568.63,3189.64 8570.3,3197.34 "/>
    <polygon id="170" class="fil141" points="8014.04,3312.06 8012.38,3304.36 8567.53,3184.51 8569.19,3192.21 "/>
    <polygon id="171" class="fil108" points="8012.94,3306.93 8011.28,3299.23 8566.42,3179.38 8568.08,3187.07 "/>
    <polygon id="172" class="fil107" points="8011.83,3301.8 8010.17,3294.1 8565.31,3174.25 8566.97,3181.94 "/>
    <polygon id="173" class="fil142" points="8010.72,3296.66 8009.06,3288.97 8564.2,3169.12 8565.86,3176.81 "/>
    <polygon id="174" class="fil142" points="8009.61,3291.53 8007.95,3283.84 8563.1,3163.99 8564.76,3171.68 "/>
    <polygon id="175" class="fil106" points="8008.51,3286.4 8006.85,3278.71 8561.99,3158.86 8563.65,3166.55 "/>
    <polygon id="176" class="fil105" points="8007.4,3281.27 8005.74,3273.57 8560.88,3153.73 8562.54,3161.42 "/>
    <polygon id="177" class="fil104" points="8006.29,3276.14 8004.63,3268.44 8559.78,3148.59 8561.44,3156.29 "/>
    <polygon id="178" class="fil143" points="8005.19,3271.01 8003.52,3263.31 8558.67,3143.46 8560.33,3151.16 "/>
    <polygon id="179" class="fil103" points="8004.08,3265.88 8002.41,3258.18 8557.56,3138.33 8559.22,3146.02 "/>
    <polygon id="180" class="fil103" points="8002.97,3260.74 8001.3,3253.04 8556.45,3133.2 8558.12,3140.89 "/>
    <polygon id="181" class="fil102" points="8001.86,3255.61 8000.19,3247.91 8555.34,3128.07 8557.01,3135.76 "/>
    <polygon id="182" class="fil144" points="8000.75,3250.48 7999.09,3242.78 8554.23,3122.94 8555.9,3130.63 "/>
    <polygon id="183" class="fil101" points="7999.64,3245.35 7997.98,3237.65 8553.12,3117.81 8554.78,3125.5 "/>
    <polygon id="184" class="fil100" points="7998.53,3240.22 7996.87,3232.52 8552.02,3112.67 8553.68,3120.37 "/>
    <polygon id="185" class="fil100" points="7997.43,3235.09 7995.77,3227.39 8550.91,3107.54 8552.57,3115.24 "/>
    <polygon id="186" class="fil145" points="7996.32,3229.96 7994.66,3222.26 8549.8,3102.41 8551.46,3110.11 "/>
    <polygon id="187" class="fil99" points="7995.21,3224.83 7993.55,3217.13 8548.7,3097.27 8550.36,3104.97 "/>
    <polygon id="188" class="fil98" points="7994.11,3219.69 7992.44,3211.99 8547.59,3092.14 8549.25,3099.84 "/>
    <polygon id="189" class="fil97" points="7993,3214.56 7991.34,3206.86 8546.48,3087.01 8548.14,3094.71 "/>
    <polygon id="190" class="fil146" points="7991.89,3209.43 7990.23,3201.73 8545.37,3081.88 8547.03,3089.58 "/>
    <polygon id="191" class="fil146" points="7990.78,3204.3 7989.12,3196.6 8544.27,3076.75 8545.93,3084.45 "/>
    <polygon id="192" class="fil96" points="7989.68,3199.17 7988.01,3191.47 8543.16,3071.62 8544.82,3079.32 "/>
    <polygon id="193" class="fil95" points="7988.57,3194.04 7986.9,3186.34 8542.05,3066.49 8543.71,3074.19 "/>
    <polygon id="194" class="fil147" points="7987.46,3188.91 7985.79,3181.21 8540.94,3061.35 8542.6,3069.06 "/>
    <polygon id="195" class="fil94" points="7986.35,3183.78 7984.69,3176.07 8539.83,3056.22 8541.49,3063.92 "/>
    <polygon id="196" class="fil93" points="7985.24,3178.64 7983.58,3170.94 8538.72,3051.09 8540.38,3058.79 "/>
    <polygon id="197" class="fil93" points="7984.13,3173.51 7982.47,3165.81 8537.61,3045.96 8539.27,3053.66 "/>
    <polygon id="198" class="fil92" points="7983.02,3168.37 7981.36,3160.68 8536.51,3040.83 8538.17,3048.53 "/>
    <polygon id="199" class="fil148" points="7981.92,3163.24 7980.26,3155.55 8535.4,3035.7 8537.06,3043.4 "/>
    <polygon id="200" class="fil91" points="7980.81,3158.11 7979.15,3150.42 8534.29,3030.57 8535.95,3038.27 "/>
    <polygon id="201" class="fil90" points="7979.7,3152.98 7978.04,3145.29 8533.19,3025.44 8534.85,3033.14 "/>
    <polygon id="202" class="fil90" points="7978.6,3147.85 7976.94,3140.16 8532.08,3020.3 8533.74,3028 "/>
    <polygon id="203" class="fil149" points="7977.49,3142.72 7975.83,3135.02 8530.97,3015.17 8532.63,3022.87 "/>
    <polygon id="204" class="fil89" points="7976.38,3137.59 7974.72,3129.89 8529.86,3010.04 8531.53,3017.74 "/>
    <polygon id="205" class="fil88" points="7975.27,3132.45 7973.61,3124.76 8528.76,3004.91 8530.42,3012.61 "/>
    <polygon id="206" class="fil150" points="7974.17,3127.32 7972.5,3119.63 8527.65,2999.78 8529.31,3007.48 "/>
    <polygon id="207" class="fil87" points="7973.05,3122.19 7971.39,3114.5 8526.54,2994.65 8528.2,3002.35 "/>
    <polygon id="208" class="fil87" points="7971.94,3117.06 7970.28,3109.37 8525.43,2989.52 8527.09,2997.22 "/>
    <polygon id="209" class="fil86" points="7970.84,3111.93 7969.18,3104.24 8524.32,2984.38 8525.98,2992.08 "/>
    <polygon id="210" class="fil85" points="7969.73,3106.8 7968.07,3099.11 8523.21,2979.25 8524.87,2986.95 "/>
    <polygon id="211" class="fil151" points="7968.62,3101.67 7966.96,3093.97 8522.11,2974.12 8523.77,2981.82 "/>
    <polygon id="212" class="fil84" points="7967.52,3096.54 7965.85,3088.84 8521,2968.99 8522.66,2976.68 "/>
    <polygon id="213" class="fil83" points="7966.41,3091.4 7964.75,3083.71 8519.89,2963.86 8521.55,2971.55 "/>
    <polygon id="214" class="fil83" points="7965.3,3086.27 7963.64,3078.58 8518.78,2958.73 8520.44,2966.42 "/>
    <polygon id="215" class="fil152" points="7964.19,3081.14 7962.53,3073.45 8517.68,2953.6 8519.34,2961.29 "/>
    <polygon id="216" class="fil82" points="7963.09,3076.01 7961.43,3068.32 8516.57,2948.47 8518.23,2956.16 "/>
    <polygon id="217" class="fil81" points="7961.98,3070.88 7960.32,3063.19 8515.46,2943.33 8517.12,2951.03 "/>
    <polygon id="218" class="fil153" points="7960.87,3065.75 7959.21,3058.05 8514.36,2938.2 8516.02,2945.9 "/>
    <polygon id="219" class="fil153" points="7959.76,3060.62 7958.1,3052.92 8513.25,2933.07 8514.91,2940.77 "/>
    <polygon id="220" class="fil80" points="7958.65,3055.49 7956.99,3047.78 8512.14,2927.94 8513.8,2935.63 "/>
    <polygon id="221" class="fil79" points="7957.54,3050.35 7955.88,3042.65 8511.03,2922.81 8512.69,2930.5 "/>
    <polygon id="222" class="fil78" points="7956.43,3045.22 7954.77,3037.52 8509.92,2917.68 8511.58,2925.37 "/>
    <polygon id="223" class="fil154" points="7955.33,3040.09 7953.67,3032.39 8508.81,2912.55 8510.47,2920.24 "/>
    <polygon id="224" class="fil77" points="7954.22,3034.96 7952.56,3027.26 8507.7,2907.42 8509.36,2915.11 "/>
    <polygon id="225" class="fil77" points="7953.11,3029.83 7951.45,3022.13 8506.6,2902.28 8508.26,2909.98 "/>
    <polygon id="226" class="fil76" points="7952.01,3024.7 7950.35,3017 8505.49,2897.15 8507.15,2904.85 "/>
    <polygon id="227" class="fil155" points="7950.9,3019.57 7949.24,3011.87 8504.38,2892.02 8506.04,2899.71 "/>
    <polygon id="228" class="fil75" points="7949.79,3014.44 7948.13,3006.73 8503.27,2886.89 8504.94,2894.58 "/>
    <polygon id="229" class="fil74" points="7948.69,3009.3 7947.02,3001.6 8502.17,2881.75 8503.83,2889.45 "/>
    <polygon id="230" class="fil74" points="7947.58,3004.17 7945.92,2996.47 8501.06,2876.62 8502.72,2884.32 "/>
    <polygon id="231" class="fil156" points="7946.47,2999.04 7944.81,2991.34 8499.95,2871.49 8501.61,2879.19 "/>
    <polygon id="232" class="fil73" points="7945.36,2993.91 7943.7,2986.21 8498.85,2866.36 8500.51,2874.06 "/>
    <polygon id="233" class="fil72" points="7944.25,2988.78 7942.59,2981.08 8497.74,2861.23 8499.4,2868.93 "/>
    <polygon id="234" class="fil71" points="7943.14,2983.65 7941.48,2975.95 8496.63,2856.09 8498.29,2863.8 "/>
    <polygon id="235" class="fil157" points="7942.03,2978.52 7940.37,2970.82 8495.52,2850.96 8497.18,2858.66 "/>
    <polygon id="236" class="fil157" points="7940.93,2973.38 7939.26,2965.68 8494.41,2845.83 8496.07,2853.53 "/>
    <polygon id="237" class="fil70" points="7939.82,2968.25 7938.16,2960.55 8493.3,2840.7 8494.96,2848.4 "/>
    <polygon id="238" class="fil69" points="7938.71,2963.12 7937.05,2955.42 8492.19,2835.57 8493.85,2843.27 "/>
    <polygon id="239" class="fil158" points="7937.6,2957.99 7935.94,2950.29 8491.09,2830.44 8492.75,2838.14 "/>
    <polygon id="240" class="fil68" points="7936.5,2952.85 7934.84,2945.16 8489.98,2825.31 8491.64,2833.01 "/>
    <polygon id="241" class="fil67" points="7935.39,2947.72 7933.73,2940.03 8488.87,2820.18 8490.53,2827.88 "/>
    <polygon id="242" class="fil67" points="7934.28,2942.59 7932.62,2934.9 8487.77,2815.04 8489.43,2822.75 "/>
    <polygon id="243" class="fil159" points="7933.18,2937.46 7931.52,2929.77 8486.66,2809.91 8488.32,2817.61 "/>
    <polygon id="244" class="fil66" points="7932.07,2932.33 7930.41,2924.63 8485.55,2804.78 8487.21,2812.48 "/>
    <polygon id="245" class="fil65" points="7930.96,2927.2 7929.3,2919.5 8484.44,2799.65 8486.1,2807.35 "/>
    <polygon id="246" class="fil64" points="7929.85,2922.06 7928.19,2914.37 8483.34,2794.52 8485,2802.22 "/>
    <polygon id="247" class="fil64" points="7928.74,2916.93 7927.08,2909.24 8482.22,2789.39 8483.89,2797.09 "/>
    <polygon id="248" class="fil160" points="7927.63,2911.8 7925.97,2904.11 8481.11,2784.26 8482.78,2791.96 "/>
    <polygon id="249" class="fil63" points="7926.52,2906.67 7924.86,2898.98 8480.01,2779.13 8481.67,2786.83 "/>
    <polygon id="250" class="fil62" points="7925.42,2901.54 7923.76,2893.85 8478.9,2773.99 8480.56,2781.7 "/>
    <polygon id="251" class="fil161" points="7924.31,2896.41 7922.65,2888.71 8477.79,2768.86 8479.45,2776.56 "/>
    <polygon id="252" class="fil61" points="7923.2,2891.28 7921.54,2883.58 8476.68,2763.73 8478.35,2771.42 "/>
    <polygon id="253" class="fil61" points="7922.1,2886.15 7920.43,2878.45 8475.58,2758.6 8477.24,2766.29 "/>
    <polygon id="254" class="fil60" points="7920.99,2881.01 7919.33,2873.32 8474.47,2753.47 8476.13,2761.16 "/>
    <polygon id="255" class="fil59" points="7919.88,2875.88 7918.22,2868.19 8473.36,2748.34 8475.02,2756.03 "/>
    <polygon id="256" class="fil162" points="7918.77,2870.75 7917.11,2863.06 8472.26,2743.21 8473.92,2750.9 "/>
    <polygon id="257" class="fil58" points="7917.67,2865.62 7916.01,2857.93 8471.15,2738.08 8472.81,2745.77 "/>
    <polygon id="258" class="fil57" points="7916.56,2860.49 7914.9,2852.8 8470.04,2732.94 8471.7,2740.64 "/>
    <polygon id="259" class="fil57" points="7915.45,2855.36 7913.79,2847.66 8468.93,2727.81 8470.6,2735.51 "/>
    <polygon id="260" class="fil163" points="7914.34,2850.23 7912.68,2842.53 8467.82,2722.68 8469.49,2730.37 "/>
    <polygon id="261" class="fil56" points="7913.23,2845.09 7911.57,2837.39 8466.71,2717.55 8468.38,2725.24 "/>
    <polygon id="262" class="fil163" points="7912.12,2839.96 7910.46,2832.26 8465.6,2712.42 8467.27,2720.11 "/>
    <polygon id="263" class="fil57" points="7911.01,2834.83 7909.35,2827.13 8464.5,2707.29 8466.16,2714.98 "/>
    <polygon id="264" class="fil57" points="7909.91,2829.7 7908.25,2822 8463.39,2702.16 8465.05,2709.85 "/>
    <polygon id="265" class="fil58" points="7908.8,2824.57 7907.14,2816.87 8462.28,2697.02 8463.94,2704.72 "/>
    <polygon id="266" class="fil162" points="7907.69,2819.44 7906.03,2811.74 8461.18,2691.89 8462.84,2699.59 "/>
    <polygon id="267" class="fil59" points="7906.59,2814.31 7904.93,2806.61 8460.07,2686.76 8461.73,2694.46 "/>
    <polygon id="268" class="fil60" points="7905.48,2809.18 7906.22,2812.6 8461.37,2692.76 8460.62,2689.32 "/>
   </g>
   <path id="269" class="fil0 str4" d="M8205.48 2750.13l252.05 0c9.89,0 17.97,8.08 17.97,17.97l0 1337.54c0,9.89 -8.08,17.97 -17.97,17.97l-252.05 0c-9.89,0 -17.97,-8.08 -17.97,-17.97l0 -1337.54c0,-9.89 8.08,-17.97 17.97,-17.97z"/>
  </g>
  <path class="fil0 str4" d="M11917.55 3675.4l-92.19 85.86 0 925.54c0,27.14 -22.2,49.34 -49.34,49.34l-740.05 0c-27.14,0 -49.34,-22.2 -49.34,-49.34l0 -1011.4"/>
  <g>
   <rect class="fil164 str4" x="11453.62" y="3135.04" width="348.84" height="148.95"/>
   <rect class="fil165 str4" x="11520.25" y="3284" width="215.57" height="148.95"/>
   <rect class="fil166 str4" x="11579.04" y="3432.94" width="98" height="74.48"/>
  </g>
  <path class="fil167 str4" d="M731.35 10.27l989.73 0 0 438.31 -326.24 0c37.05,86.84 57.59,182.4 57.59,282.77 0,398.25 -322.84,721.08 -721.08,721.08 -398.25,0 -721.08,-322.84 -721.08,-721.08 0,-398.25 322.84,-721.08 721.08,-721.08zm0 424.16c163.98,0 296.92,132.94 296.92,296.92 0,163.98 -132.94,296.92 -296.92,296.92 -163.98,0 -296.92,-132.94 -296.92,-296.92 0,-163.98 132.94,-296.92 296.92,-296.92z"/>
  <g>
   <line class="fil0 str4" x1="1644.7" y1="2409.74" x2="2062.48" y2= "2409.74" />
   <line class="fil0 str4" x1="1696.67" y1="2463" x2="2010.5" y2= "2463" />
   <line class="fil0 str4" x1="1735.72" y1="2516.27" x2="1971.46" y2= "2516.27" />
  </g>
  <g>
   <polygon class="fil168 str4" points="3437,2013.66 2754.09,1520.69 2754.09,2013.66 3437,1520.69 "/>
   <polygon class="fil168 str4" points="2849.06,1415.78 3095.55,1757.23 3342.03,1415.78 "/>
   <circle class="fil169 str4" cx="3095.55" cy="1767.17" r="72.92"/>
  </g>
  <g>
   <polygon class="fil168 str4" points="4466.23,2442.18 4128.3,2910.31 4466.23,2910.31 4128.3,2442.18 "/>
   <circle class="fil169 str4" cx="4297.27" cy="2676.24" r="72.92"/>
  </g>
  <g>
   <polygon class="fil168 str4" points="5528.97,3262.39 6001.08,3603.19 6001.08,3262.39 5528.97,3603.19 "/>
   <polygon class="fil168 str4" points="5935.42,3675.71 5765.02,3439.66 5594.63,3675.71 "/>
   <circle class="fil169 str4" cx="5765.02" cy="3432.79" r="50.41"/>
  </g>
  <rect class="fil170 str4" x="3907.84" y="1444.88" width="841.42" height="647.12"/>
 </g>
</svg>
