<?xml version="1.0" encoding="UTF-8" standalone="no"?>
<!-- Created with Inkscape (http://www.inkscape.org/) -->

<svg
   width="175.82796mm"
   height="288.33234mm"
   viewBox="0 0 175.82796 288.33234"
   version="1.1"
   id="svg6701"
   inkscape:version="1.1 (ce6663b3b7, 2021-05-25)"
   sodipodi:docname="v2.svg"
   xmlns:inkscape="http://www.inkscape.org/namespaces/inkscape"
   xmlns:sodipodi="http://sodipodi.sourceforge.net/DTD/sodipodi-0.dtd"
   xmlns="http://www.w3.org/2000/svg"
   xmlns:svg="http://www.w3.org/2000/svg">
  <sodipodi:namedview
     id="namedview6703"
     pagecolor="#ffffff"
     bordercolor="#666666"
     borderopacity="1.0"
     inkscape:pageshadow="2"
     inkscape:pageopacity="0.0"
     inkscape:pagecheckerboard="0"
     inkscape:document-units="mm"
     showgrid="false"
     fit-margin-top="0"
     fit-margin-left="0"
     fit-margin-right="0"
     fit-margin-bottom="0"
     inkscape:zoom="0.35455254"
     inkscape:cx="416.01733"
     inkscape:cy="478.06737"
     inkscape:window-width="1294"
     inkscape:window-height="704"
     inkscape:window-x="72"
     inkscape:window-y="27"
     inkscape:window-maximized="1"
     inkscape:current-layer="layer1" />
  <defs
     id="defs6698" />
  <g
     inkscape:label="Capa 1"
     inkscape:groupmode="layer"
     id="layer1"
     transform="translate(4.8817546,-22.430634)">
    <path
       d="m -4.8817546,28.166804 c 0,-3.17147 3.05152,-5.73617 6.82272,-5.73617 H 164.12349 c 3.7712,0 6.82272,2.5647 6.82272,5.73617 0,3.16794 -3.05152,5.73617 -6.82272,5.73617 h -5.37633 V 294.5246 c 0,8.97114 -5.94078,16.23836 -13.26797,16.23836 H 20.546465 c -7.33072,0 -13.2679696,-7.26722 -13.2679696,-16.23836 V 33.902974 h -5.33753 c -3.7712,0 -6.82272,-2.56823 -6.82272,-5.73617"
       style="fill:#c4ecf4;fill-opacity:1;fill-rule:nonzero;stroke:none;stroke-width:0.0352778"
       id="path344-6" />
    <path
       d="m -4.8817546,28.166804 c 0,-3.16794 3.05152,-5.73617 6.82272,-5.73617 H 48.052545 c -3.77119,0 5.334,11.47234 5.334,11.47234 V 294.5246 c 0,7.52828 4.18747,13.86064 9.86719,15.69861 -1.09008,0.35278 -2.23308,0.53975 -3.41136,0.53975 h -39.29591 c -7.33072,0 -13.2714996,-7.26722 -13.2714996,-16.23836 V 33.902974 h -5.334 c -3.7712,0 -6.82272,-2.56823 -6.82272,-5.73617"
       style="fill:#d4f1f8;fill-opacity:1;fill-rule:nonzero;stroke:none;stroke-width:0.0352778"
       id="path346-7" />
    <path
       d="m 158.74716,241.57548 v 63.32333 c 0,3.23973 -5.94078,5.86415 -13.26797,5.86415 H 20.546465 c -7.33072,0 -13.2714996,-2.62442 -13.2714996,-5.86415 V 241.57548 H 158.74716"
       style="fill:#2c5aa0;fill-opacity:1;fill-rule:nonzero;stroke:none;stroke-width:0.0211998"
       id="path348-5" />
    <path
       d="m 53.386545,304.89888 v -63.3234 H 7.2749654 v 63.3234 c 0,3.23966 5.9407796,5.86408 13.2714996,5.86408 h 39.29591 c 1.17828,0 2.32128,-0.0676 3.40784,-0.19491 -5.6762,-0.66375 -9.86367,-2.95056 -9.86367,-5.66917"
       style="fill:#214478;fill-opacity:1;fill-rule:nonzero;stroke:none;stroke-width:0.0211998"
       id="path350-3" />
    <g
       id="g3589"
       style="fill:#483745"
       transform="matrix(0.35277777,0,0,-0.35277777,-1640.1658,924.65015)">
      <path
         d="m 5019.2508,2520.5327 h 81.35 v -12.56 h -81.35 v 12.56"
         style="fill:#483745;fill-opacity:1;fill-rule:nonzero;stroke:none;stroke-width:0.1"
         id="path352-5" />
      <path
         d="m 5057.4108,2489.8827 h 43.19 v -12.56 h -43.19 v 12.56"
         style="fill:#483745;fill-opacity:1;fill-rule:nonzero;stroke:none;stroke-width:0.1"
         id="path354-6" />
      <path
         d="m 5057.4108,2459.2327 h 43.19 v -12.56 h -43.19 v 12.56"
         style="fill:#483745;fill-opacity:1;fill-rule:nonzero;stroke:none;stroke-width:0.1"
         id="path356-2" />
      <path
         d="m 5057.4108,2428.5727 h 43.19 v -12.55 h -43.19 v 12.55"
         style="fill:#483745;fill-opacity:1;fill-rule:nonzero;stroke:none;stroke-width:0.1"
         id="path358-9" />
      <path
         d="m 5100.6008,2520.5327 h -81.35 v -12.56 h 81.35 v 12.56"
         style="fill:#483745;fill-opacity:1;fill-rule:nonzero;stroke:none;stroke-width:0.1"
         id="path404-2" />
      <path
         d="m 5100.6008,2489.8827 h -43.19 v -12.56 h 43.19 v 12.56"
         style="fill:#483745;fill-opacity:1;fill-rule:nonzero;stroke:none;stroke-width:0.1"
         id="path406-2" />
      <path
         d="m 5100.6008,2459.2327 h -43.19 v -12.56 h 43.19 v 12.56"
         style="fill:#483745;fill-opacity:1;fill-rule:nonzero;stroke:none;stroke-width:0.1"
         id="path408-8" />
      <path
         d="m 5100.6008,2428.5727 h -43.19 v -12.55 h 43.19 v 12.55"
         style="fill:#483745;fill-opacity:1;fill-rule:nonzero;stroke:none;stroke-width:0.1"
         id="path410-9" />
      <path
         d="m 5058.2844,2399.3897 h 43.19 v -12.56 h -43.19 v 12.56"
         style="fill:#483745;fill-opacity:1;fill-rule:nonzero;stroke:none;stroke-width:0.1"
         id="path354-6-54" />
      <path
         d="m 5058.2844,2368.7397 h 43.19 v -12.56 h -43.19 v 12.56"
         style="fill:#483745;fill-opacity:1;fill-rule:nonzero;stroke:none;stroke-width:0.1"
         id="path356-2-0" />
      <path
         d="m 5101.4744,2399.3897 h -43.19 v -12.56 h 43.19 v 12.56"
         style="fill:#483745;fill-opacity:1;fill-rule:nonzero;stroke:none;stroke-width:0.1"
         id="path406-2-9" />
      <path
         d="m 5101.4744,2368.7397 h -43.19 v -12.56 h 43.19 v 12.56"
         style="fill:#483745;fill-opacity:1;fill-rule:nonzero;stroke:none;stroke-width:0.1"
         id="path408-8-4" />
    </g>
    <path
       d="m 130.82254,98.963304 h 28.69847 v 4.430886 h -28.69847 v -4.430886"
       style="fill:#483745;fill-opacity:1;fill-rule:nonzero;stroke:none;stroke-width:0.0352778"
       id="path352-5-9" />
    <path
       d="m 144.28454,109.77594 h 15.23647 v 4.43089 h -15.23647 v -4.43089"
       style="fill:#483745;fill-opacity:1;fill-rule:nonzero;stroke:none;stroke-width:0.0352778"
       id="path354-6-2" />
    <path
       d="m 144.28454,120.58858 h 15.23647 v 4.43089 h -15.23647 v -4.43089"
       style="fill:#483745;fill-opacity:1;fill-rule:nonzero;stroke:none;stroke-width:0.0352778"
       id="path356-2-2" />
    <path
       d="m 144.28454,131.40475 h 15.23647 v 4.42736 h -15.23647 v -4.42736"
       style="fill:#483745;fill-opacity:1;fill-rule:nonzero;stroke:none;stroke-width:0.0352778"
       id="path358-9-47" />
    <path
       d="m 159.52101,98.963304 h -28.69847 v 4.430886 h 28.69847 v -4.430886"
       style="fill:#483745;fill-opacity:1;fill-rule:nonzero;stroke:none;stroke-width:0.0352778"
       id="path404-2-7" />
    <path
       d="m 159.52101,109.77594 h -15.23647 v 4.43089 h 15.23647 v -4.43089"
       style="fill:#483745;fill-opacity:1;fill-rule:nonzero;stroke:none;stroke-width:0.0352778"
       id="path406-2-5" />
    <path
       d="m 159.52101,120.58858 h -15.23647 v 4.43089 h 15.23647 v -4.43089"
       style="fill:#483745;fill-opacity:1;fill-rule:nonzero;stroke:none;stroke-width:0.0352778"
       id="path408-8-48" />
    <path
       d="m 159.52101,131.40475 h -15.23647 v 4.42736 h 15.23647 v -4.42736"
       style="fill:#483745;fill-opacity:1;fill-rule:nonzero;stroke:none;stroke-width:0.0352778"
       id="path410-9-1" />
    <path
       d="m 144.59273,141.69986 h 15.23647 v 4.43089 h -15.23647 v -4.43089"
       style="fill:#483745;fill-opacity:1;fill-rule:nonzero;stroke:none;stroke-width:0.0352778"
       id="path354-6-54-2" />
    <path
       d="m 144.59273,152.5125 h 15.23647 v 4.43089 h -15.23647 v -4.43089"
       style="fill:#483745;fill-opacity:1;fill-rule:nonzero;stroke:none;stroke-width:0.0352778"
       id="path356-2-0-8" />
    <path
       d="m 159.8292,141.69986 h -15.23647 v 4.43089 h 15.23647 v -4.43089"
       style="fill:#483745;fill-opacity:1;fill-rule:nonzero;stroke:none;stroke-width:0.0352778"
       id="path406-2-9-3" />
    <path
       d="m 159.8292,152.5125 h -15.23647 v 4.43089 h 15.23647 v -4.43089"
       style="fill:#483745;fill-opacity:1;fill-rule:nonzero;stroke:none;stroke-width:0.0352778"
       id="path408-8-4-6" />
    <path
       d="m 131.04705,162.80408 h 28.69847 v 4.43089 h -28.69847 v -4.43089"
       style="fill:#483745;fill-opacity:1;fill-rule:nonzero;stroke:none;stroke-width:0.0352778"
       id="path352-5-0" />
    <path
       d="m 144.50905,173.61672 h 15.23647 v 4.43089 h -15.23647 v -4.43089"
       style="fill:#483745;fill-opacity:1;fill-rule:nonzero;stroke:none;stroke-width:0.0352778"
       id="path354-6-21" />
    <path
       d="m 144.50905,184.42936 h 15.23647 v 4.43089 h -15.23647 v -4.43089"
       style="fill:#483745;fill-opacity:1;fill-rule:nonzero;stroke:none;stroke-width:0.0352778"
       id="path356-2-05" />
    <path
       d="m 144.50905,195.24553 h 15.23647 v 4.42736 h -15.23647 v -4.42736"
       style="fill:#483745;fill-opacity:1;fill-rule:nonzero;stroke:none;stroke-width:0.0352778"
       id="path358-9-1" />
    <path
       d="m 159.74552,162.80408 h -28.69847 v 4.43089 h 28.69847 v -4.43089"
       style="fill:#483745;fill-opacity:1;fill-rule:nonzero;stroke:none;stroke-width:0.0352778"
       id="path404-2-1" />
    <path
       d="m 159.74552,173.61672 h -15.23647 v 4.43089 h 15.23647 v -4.43089"
       style="fill:#483745;fill-opacity:1;fill-rule:nonzero;stroke:none;stroke-width:0.0352778"
       id="path406-2-0" />
    <path
       d="m 159.74552,184.42936 h -15.23647 v 4.43089 h 15.23647 v -4.43089"
       style="fill:#483745;fill-opacity:1;fill-rule:nonzero;stroke:none;stroke-width:0.0352778"
       id="path408-8-8" />
    <path
       d="m 159.74552,195.24553 h -15.23647 v 4.42736 h 15.23647 v -4.42736"
       style="fill:#483745;fill-opacity:1;fill-rule:nonzero;stroke:none;stroke-width:0.0352778"
       id="path410-9-5" />
    <path
       d="m 144.81724,205.54064 h 15.23647 v 4.43089 h -15.23647 v -4.43089"
       style="fill:#483745;fill-opacity:1;fill-rule:nonzero;stroke:none;stroke-width:0.0352778"
       id="path354-6-54-0" />
    <path
       d="m 144.81724,216.35328 h 15.23647 v 4.43089 h -15.23647 v -4.43089"
       style="fill:#483745;fill-opacity:1;fill-rule:nonzero;stroke:none;stroke-width:0.0352778"
       id="path356-2-0-6" />
    <path
       d="m 144.81724,227.16945 h 15.23647 v 4.42736 h -15.23647 v -4.42736"
       style="fill:#483745;fill-opacity:1;fill-rule:nonzero;stroke:none;stroke-width:0.0352778"
       id="path358-9-5-4" />
    <path
       d="m 160.05371,205.54064 h -15.23647 v 4.43089 h 15.23647 v -4.43089"
       style="fill:#483745;fill-opacity:1;fill-rule:nonzero;stroke:none;stroke-width:0.0352778"
       id="path406-2-9-6" />
    <path
       d="m 160.05371,216.35328 h -15.23647 v 4.43089 h 15.23647 v -4.43089"
       style="fill:#483745;fill-opacity:1;fill-rule:nonzero;stroke:none;stroke-width:0.0352778"
       id="path408-8-4-2" />
    <path
       d="m 160.05371,227.16945 h -15.23647 v 4.42736 h 15.23647 v -4.42736"
       style="fill:#483745;fill-opacity:1;fill-rule:nonzero;stroke:none;stroke-width:0.0352778"
       id="path410-9-6-5" />
    <path
       d="m 130.66051,239.32388 h 28.69847 v 4.43088 h -28.69847 v -4.43088"
       style="fill:#483745;fill-opacity:1;fill-rule:nonzero;stroke:none;stroke-width:0.0352778"
       id="path352-5-0-8" />
    <path
       d="m 144.12251,250.13651 h 15.23647 v 4.43089 h -15.23647 v -4.43089"
       style="fill:#483745;fill-opacity:1;fill-rule:nonzero;stroke:none;stroke-width:0.0352778"
       id="path354-6-21-6" />
    <path
       d="m 144.12251,260.94915 h 15.23647 v 4.43089 h -15.23647 v -4.43089"
       style="fill:#483745;fill-opacity:1;fill-rule:nonzero;stroke:none;stroke-width:0.0352778"
       id="path356-2-05-2" />
    <path
       d="m 144.12251,271.76532 h 15.23647 v 4.42736 h -15.23647 v -4.42736"
       style="fill:#483745;fill-opacity:1;fill-rule:nonzero;stroke:none;stroke-width:0.0352778"
       id="path358-9-1-8" />
    <path
       d="m 159.35898,239.32388 h -28.69847 v 4.43088 h 28.69847 v -4.43088"
       style="fill:#483745;fill-opacity:1;fill-rule:nonzero;stroke:none;stroke-width:0.0352778"
       id="path404-2-1-4" />
    <path
       d="m 159.35898,250.13651 h -15.23647 v 4.43089 h 15.23647 v -4.43089"
       style="fill:#483745;fill-opacity:1;fill-rule:nonzero;stroke:none;stroke-width:0.0352778"
       id="path406-2-0-7" />
    <path
       d="m 159.35898,260.94915 h -15.23647 v 4.43089 h 15.23647 v -4.43089"
       style="fill:#483745;fill-opacity:1;fill-rule:nonzero;stroke:none;stroke-width:0.0352778"
       id="path408-8-8-2" />
    <path
       d="m 159.35898,271.76532 h -15.23647 v 4.42736 h 15.23647 v -4.42736"
       style="fill:#483745;fill-opacity:1;fill-rule:nonzero;stroke:none;stroke-width:0.0352778"
       id="path410-9-5-4" />
    <path
       d="m 144.4307,282.06043 h 15.23647 v 4.43089 H 144.4307 v -4.43089"
       style="fill:#483745;fill-opacity:1;fill-rule:nonzero;stroke:none;stroke-width:0.0352778"
       id="path354-6-54-0-0" />
    <path
       d="m 144.4307,292.87307 h 15.23647 v 4.43089 H 144.4307 v -4.43089"
       style="fill:#483745;fill-opacity:1;fill-rule:nonzero;stroke:none;stroke-width:0.0352778"
       id="path356-2-0-6-6" />
    <path
       d="M 159.66717,282.06043 H 144.4307 v 4.43089 h 15.23647 v -4.43089"
       style="fill:#483745;fill-opacity:1;fill-rule:nonzero;stroke:none;stroke-width:0.0352778"
       id="path406-2-9-6-9" />
    <path
       d="M 159.66717,292.87307 H 144.4307 v 4.43089 h 15.23647 v -4.43089"
       style="fill:#483745;fill-opacity:1;fill-rule:nonzero;stroke:none;stroke-width:0.0352778"
       id="path408-8-4-2-9" />
  </g>
</svg>
