<?xml version="1.0" encoding="UTF-8" standalone="no"?>
<!-- Created with Inkscape (http://www.inkscape.org/) -->

<svg
   width="175.82796mm"
   height="288.33234mm"
   viewBox="0 0 175.82796 288.33234"
   version="1.1"
   id="svg6701"
   inkscape:version="1.1 (ce6663b3b7, 2021-05-25)"
   sodipodi:docname="v2.svg"
   xmlns:inkscape="http://www.inkscape.org/namespaces/inkscape"
   xmlns:sodipodi="http://sodipodi.sourceforge.net/DTD/sodipodi-0.dtd"
   xmlns="http://www.w3.org/2000/svg"
   xmlns:svg="http://www.w3.org/2000/svg">
  <sodipodi:namedview
     id="namedview6703"
     pagecolor="#ffffff"
     bordercolor="#666666"
     borderopacity="1.0"
     inkscape:pageshadow="2"
     inkscape:pageopacity="0.0"
     inkscape:pagecheckerboard="0"
     inkscape:document-units="mm"
     showgrid="false"
     fit-margin-top="0"
     fit-margin-left="0"
     fit-margin-right="0"
     fit-margin-bottom="0"
     inkscape:zoom="0.35455254"
     inkscape:cx="416.01733"
     inkscape:cy="478.06737"
     inkscape:window-width="1294"
     inkscape:window-height="704"
     inkscape:window-x="72"
     inkscape:window-y="27"
     inkscape:window-maximized="1"
     inkscape:current-layer="layer1" />
  <defs
     id="defs6698" />
  <g
     inkscape:label="Capa 1"
     inkscape:groupmode="layer"
     id="layer1"
     transform="translate(4.8817546,-22.430634)">
    <g
       id="g16527"
       transform="matrix(0.35277777,0,0,-0.35277777,-1845.6544,1244.3943)">
      <path
         d="m 5217.9383,3447.574 c 0,8.99 8.65,16.26 19.34,16.26 h 459.73 c 10.69,0 19.34,-7.27 19.34,-16.26 0,-8.98 -8.6499,-16.26 -19.34,-16.26 h -15.2399 v -738.77 c 0,-25.43 -16.8401,-46.03 -37.61,-46.03 h -354.14 c -20.78,0 -37.61,20.6 -37.61,46.03 v 738.77 h -15.13 c -10.69,0 -19.34,7.28 -19.34,16.26"
         style="fill:#c4ecf4;fill-opacity:1;fill-rule:nonzero;stroke:none;stroke-width:0.1"
         id="path344-6-8-1" />
      <path
         d="m 5217.9383,3447.574 c 0,8.98 8.65,16.26 19.34,16.26 h 130.71 c -10.69,0 15.12,-32.52 15.12,-32.52 v -738.77 c 0,-21.34 11.87,-39.29 27.97,-44.5 -3.09,-1 -6.33,-1.53 -9.67,-1.53 h -111.39 c -20.78,0 -37.62,20.6 -37.62,46.03 v 738.77 h -15.12 c -10.69,0 -19.34,7.28 -19.34,16.26"
         style="fill:#d4f1f8;fill-opacity:1;fill-rule:nonzero;stroke:none;stroke-width:0.1"
         id="path346-7-1-0" />
      <path
         d="m 5681.7684,2941.0881 v -269.6067 c 0,-13.7936 -16.8401,-24.9674 -37.61,-24.9674 h -354.14 c -20.78,0 -37.62,11.1738 -37.62,24.9674 v 269.6067 h 429.37"
         style="fill:#2c5aa0;fill-opacity:1;fill-rule:nonzero;stroke:none;stroke-width:0.0736487"
         id="path348-5-3-1" />
      <path
         d="m 5383.1083,2671.1088 v 265.5868 h -130.71 v -265.5868 c 0,-13.5876 16.84,-24.5948 37.62,-24.5948 h 111.39 c 3.34,0 6.58,0.2833 9.66,0.8174 -16.09,2.7839 -27.96,12.3752 -27.96,23.7774"
         style="fill:#214478;fill-opacity:1;fill-rule:nonzero;stroke:none;stroke-width:0.0730976"
         id="path350-3-1-3" />
      <g
         id="g3589-1-7"
         style="fill:#483745"
         transform="translate(582.48753,906.36126)">
        <path
           d="m 5019.2508,2520.5327 h 81.35 v -12.56 h -81.35 v 12.56"
           style="fill:#483745;fill-opacity:1;fill-rule:nonzero;stroke:none;stroke-width:0.1"
           id="path352-5-03-7" />
        <path
           d="m 5057.4108,2489.8827 h 43.19 v -12.56 h -43.19 v 12.56"
           style="fill:#483745;fill-opacity:1;fill-rule:nonzero;stroke:none;stroke-width:0.1"
           id="path354-6-4-2" />
        <path
           d="m 5057.4108,2459.2327 h 43.19 v -12.56 h -43.19 v 12.56"
           style="fill:#483745;fill-opacity:1;fill-rule:nonzero;stroke:none;stroke-width:0.1"
           id="path356-2-03-6" />
        <path
           d="m 5057.4108,2428.5727 h 43.19 v -12.55 h -43.19 v 12.55"
           style="fill:#483745;fill-opacity:1;fill-rule:nonzero;stroke:none;stroke-width:0.1"
           id="path358-9-9-4" />
        <path
           d="m 5100.6008,2520.5327 h -81.35 v -12.56 h 81.35 v 12.56"
           style="fill:#483745;fill-opacity:1;fill-rule:nonzero;stroke:none;stroke-width:0.1"
           id="path404-2-19-5" />
        <path
           d="m 5100.6008,2489.8827 h -43.19 v -12.56 h 43.19 v 12.56"
           style="fill:#483745;fill-opacity:1;fill-rule:nonzero;stroke:none;stroke-width:0.1"
           id="path406-2-6-2" />
        <path
           d="m 5100.6008,2459.2327 h -43.19 v -12.56 h 43.19 v 12.56"
           style="fill:#483745;fill-opacity:1;fill-rule:nonzero;stroke:none;stroke-width:0.1"
           id="path408-8-9-0" />
        <path
           d="m 5100.6008,2428.5727 h -43.19 v -12.55 h 43.19 v 12.55"
           style="fill:#483745;fill-opacity:1;fill-rule:nonzero;stroke:none;stroke-width:0.1"
           id="path410-9-3-2" />
        <path
           d="m 5058.2844,2399.3897 h 43.19 v -12.56 h -43.19 v 12.56"
           style="fill:#483745;fill-opacity:1;fill-rule:nonzero;stroke:none;stroke-width:0.1"
           id="path354-6-54-3-9" />
        <path
           d="m 5058.2844,2368.7397 h 43.19 v -12.56 h -43.19 v 12.56"
           style="fill:#483745;fill-opacity:1;fill-rule:nonzero;stroke:none;stroke-width:0.1"
           id="path356-2-0-80-0" />
        <path
           d="m 5101.4744,2399.3897 h -43.19 v -12.56 h 43.19 v 12.56"
           style="fill:#483745;fill-opacity:1;fill-rule:nonzero;stroke:none;stroke-width:0.1"
           id="path406-2-9-5-9" />
        <path
           d="m 5101.4744,2368.7397 h -43.19 v -12.56 h 43.19 v 12.56"
           style="fill:#483745;fill-opacity:1;fill-rule:nonzero;stroke:none;stroke-width:0.1"
           id="path408-8-4-66-9" />
      </g>
      <path
         d="m 5602.6119,3246.891 h 81.35 v -12.56 h -81.35 v 12.56"
         style="fill:#483745;fill-opacity:1;fill-rule:nonzero;stroke:none;stroke-width:0.1"
         id="path352-5-9-4-4" />
      <path
         d="m 5640.7719,3216.241 h 43.19 v -12.56 h -43.19 v 12.56"
         style="fill:#483745;fill-opacity:1;fill-rule:nonzero;stroke:none;stroke-width:0.1"
         id="path354-6-2-0-5" />
      <path
         d="m 5640.7719,3185.591 h 43.19 v -12.56 h -43.19 v 12.56"
         style="fill:#483745;fill-opacity:1;fill-rule:nonzero;stroke:none;stroke-width:0.1"
         id="path356-2-2-0-1" />
      <path
         d="m 5640.7719,3154.931 h 43.19 v -12.55 h -43.19 v 12.55"
         style="fill:#483745;fill-opacity:1;fill-rule:nonzero;stroke:none;stroke-width:0.1"
         id="path358-9-47-4-0" />
      <path
         d="m 5683.9619,3246.891 h -81.35 v -12.56 h 81.35 v 12.56"
         style="fill:#483745;fill-opacity:1;fill-rule:nonzero;stroke:none;stroke-width:0.1"
         id="path404-2-7-6-3" />
      <path
         d="m 5683.9619,3216.241 h -43.1899 v -12.56 h 43.1899 v 12.56"
         style="fill:#483745;fill-opacity:1;fill-rule:nonzero;stroke:none;stroke-width:0.1"
         id="path406-2-5-2-7" />
      <path
         d="m 5683.9619,3185.591 h -43.1899 v -12.56 h 43.1899 v 12.56"
         style="fill:#483745;fill-opacity:1;fill-rule:nonzero;stroke:none;stroke-width:0.1"
         id="path408-8-48-6-8" />
      <path
         d="m 5683.9619,3154.931 h -43.1899 v -12.55 h 43.1899 v 12.55"
         style="fill:#483745;fill-opacity:1;fill-rule:nonzero;stroke:none;stroke-width:0.1"
         id="path410-9-1-7-8" />
      <path
         d="m 5641.6455,3125.748 h 43.19 v -12.56 h -43.19 v 12.56"
         style="fill:#483745;fill-opacity:1;fill-rule:nonzero;stroke:none;stroke-width:0.1"
         id="path354-6-54-2-5-6" />
      <path
         d="m 5641.6455,3095.098 h 43.19 v -12.56 h -43.19 v 12.56"
         style="fill:#483745;fill-opacity:1;fill-rule:nonzero;stroke:none;stroke-width:0.1"
         id="path356-2-0-8-6-0" />
      <path
         d="m 5684.8355,3125.748 h -43.19 v -12.56 h 43.19 v 12.56"
         style="fill:#483745;fill-opacity:1;fill-rule:nonzero;stroke:none;stroke-width:0.1"
         id="path406-2-9-3-9-4" />
      <path
         d="m 5684.8355,3095.098 h -43.19 v -12.56 h 43.19 v 12.56"
         style="fill:#483745;fill-opacity:1;fill-rule:nonzero;stroke:none;stroke-width:0.1"
         id="path408-8-4-6-8-6" />
      <path
         d="m 5603.2483,3065.925 h 81.35 v -12.56 h -81.35 v 12.56"
         style="fill:#483745;fill-opacity:1;fill-rule:nonzero;stroke:none;stroke-width:0.1"
         id="path352-5-0-7-7" />
      <path
         d="m 5641.4083,3035.275 h 43.19 v -12.56 h -43.19 v 12.56"
         style="fill:#483745;fill-opacity:1;fill-rule:nonzero;stroke:none;stroke-width:0.1"
         id="path354-6-21-2-6" />
      <path
         d="m 5641.4083,3004.625 h 43.19 v -12.56 h -43.19 v 12.56"
         style="fill:#483745;fill-opacity:1;fill-rule:nonzero;stroke:none;stroke-width:0.1"
         id="path356-2-05-8-0" />
      <path
         d="m 5641.4083,2973.965 h 43.19 v -12.55 h -43.19 v 12.55"
         style="fill:#483745;fill-opacity:1;fill-rule:nonzero;stroke:none;stroke-width:0.1"
         id="path358-9-1-2-9" />
      <path
         d="m 5684.5983,3065.925 h -81.35 v -12.56 h 81.35 v 12.56"
         style="fill:#483745;fill-opacity:1;fill-rule:nonzero;stroke:none;stroke-width:0.1"
         id="path404-2-1-9-7" />
      <path
         d="m 5684.5983,3035.275 h -43.1899 v -12.56 h 43.1899 v 12.56"
         style="fill:#483745;fill-opacity:1;fill-rule:nonzero;stroke:none;stroke-width:0.1"
         id="path406-2-0-9-5" />
      <path
         d="m 5684.5983,3004.625 h -43.1899 v -12.56 h 43.1899 v 12.56"
         style="fill:#483745;fill-opacity:1;fill-rule:nonzero;stroke:none;stroke-width:0.1"
         id="path408-8-8-6-9" />
      <path
         d="m 5684.5983,2973.965 h -43.1899 v -12.55 h 43.1899 v 12.55"
         style="fill:#483745;fill-opacity:1;fill-rule:nonzero;stroke:none;stroke-width:0.1"
         id="path410-9-5-0-7" />
      <path
         d="m 5642.2819,2944.782 h 43.19 v -12.56 h -43.19 v 12.56"
         style="fill:#483745;fill-opacity:1;fill-rule:nonzero;stroke:none;stroke-width:0.1"
         id="path354-6-54-0-2-8" />
      <path
         d="m 5642.2819,2914.132 h 43.19 v -12.56 h -43.19 v 12.56"
         style="fill:#483745;fill-opacity:1;fill-rule:nonzero;stroke:none;stroke-width:0.1"
         id="path356-2-0-6-7-5" />
      <path
         d="m 5642.2819,2883.472 h 43.19 v -12.55 h -43.19 v 12.55"
         style="fill:#483745;fill-opacity:1;fill-rule:nonzero;stroke:none;stroke-width:0.1"
         id="path358-9-5-4-6-3" />
      <path
         d="m 5685.4719,2944.782 h -43.1899 v -12.56 h 43.1899 v 12.56"
         style="fill:#483745;fill-opacity:1;fill-rule:nonzero;stroke:none;stroke-width:0.1"
         id="path406-2-9-6-1-3" />
      <path
         d="m 5685.4719,2914.132 h -43.1899 v -12.56 h 43.1899 v 12.56"
         style="fill:#483745;fill-opacity:1;fill-rule:nonzero;stroke:none;stroke-width:0.1"
         id="path408-8-4-2-3-8" />
      <path
         d="m 5685.4719,2883.472 h -43.1899 v -12.55 h 43.1899 v 12.55"
         style="fill:#483745;fill-opacity:1;fill-rule:nonzero;stroke:none;stroke-width:0.1"
         id="path410-9-6-5-2-3" />
      <path
         d="m 5602.1526,2849.0185 h 81.3501 v -12.56 h -81.3501 v 12.56"
         style="fill:#483745;fill-opacity:1;fill-rule:nonzero;stroke:none;stroke-width:0.1"
         id="path352-5-0-8-1-7" />
      <path
         d="m 5640.3126,2818.3685 h 43.19 v -12.56 h -43.19 v 12.56"
         style="fill:#483745;fill-opacity:1;fill-rule:nonzero;stroke:none;stroke-width:0.1"
         id="path354-6-21-6-5-9" />
      <path
         d="m 5640.3126,2787.7185 h 43.19 v -12.56 h -43.19 v 12.56"
         style="fill:#483745;fill-opacity:1;fill-rule:nonzero;stroke:none;stroke-width:0.1"
         id="path356-2-05-2-9-3" />
      <path
         d="m 5640.3126,2757.0585 h 43.19 v -12.55 h -43.19 v 12.55"
         style="fill:#483745;fill-opacity:1;fill-rule:nonzero;stroke:none;stroke-width:0.1"
         id="path358-9-1-8-9-7" />
      <path
         d="m 5683.5026,2849.0185 h -81.35 v -12.56 h 81.35 v 12.56"
         style="fill:#483745;fill-opacity:1;fill-rule:nonzero;stroke:none;stroke-width:0.1"
         id="path404-2-1-4-1-8" />
      <path
         d="m 5683.5026,2818.3685 h -43.19 v -12.56 h 43.19 v 12.56"
         style="fill:#483745;fill-opacity:1;fill-rule:nonzero;stroke:none;stroke-width:0.1"
         id="path406-2-0-7-4-7" />
      <path
         d="m 5683.5026,2787.7185 h -43.19 v -12.56 h 43.19 v 12.56"
         style="fill:#483745;fill-opacity:1;fill-rule:nonzero;stroke:none;stroke-width:0.1"
         id="path408-8-8-2-9-4" />
      <path
         d="m 5683.5026,2757.0585 h -43.19 v -12.55 h 43.19 v 12.55"
         style="fill:#483745;fill-opacity:1;fill-rule:nonzero;stroke:none;stroke-width:0.1"
         id="path410-9-5-4-1-1" />
      <path
         d="m 5641.1862,2727.8755 h 43.19 v -12.56 h -43.19 v 12.56"
         style="fill:#483745;fill-opacity:1;fill-rule:nonzero;stroke:none;stroke-width:0.1"
         id="path354-6-54-0-0-0-9" />
      <path
         d="m 5641.1862,2697.2255 h 43.19 v -12.56 h -43.19 v 12.56"
         style="fill:#483745;fill-opacity:1;fill-rule:nonzero;stroke:none;stroke-width:0.1"
         id="path356-2-0-6-6-7-0" />
      <path
         d="m 5684.3762,2727.8755 h -43.1899 v -12.56 h 43.1899 v 12.56"
         style="fill:#483745;fill-opacity:1;fill-rule:nonzero;stroke:none;stroke-width:0.1"
         id="path406-2-9-6-9-5-9" />
      <path
         d="m 5684.3762,2697.2255 h -43.1899 v -12.56 h 43.1899 v 12.56"
         style="fill:#483745;fill-opacity:1;fill-rule:nonzero;stroke:none;stroke-width:0.1"
         id="path408-8-4-2-9-8-8" />
    </g>
  </g>
</svg>
