<?xml version="1.0" encoding="UTF-8" standalone="no"?>
<!-- Created with Inkscape (http://www.inkscape.org/) -->

<svg
   width="175.82796mm"
   height="288.33234mm"
   viewBox="0 0 175.82796 288.33234"
   version="1.1"
   id="svg6701"
   inkscape:version="1.1 (ce6663b3b7, 2021-05-25)"
   sodipodi:docname="v5.svg"
   xmlns:inkscape="http://www.inkscape.org/namespaces/inkscape"
   xmlns:sodipodi="http://sodipodi.sourceforge.net/DTD/sodipodi-0.dtd"
   xmlns="http://www.w3.org/2000/svg"
   xmlns:svg="http://www.w3.org/2000/svg">
  <sodipodi:namedview
     id="namedview6703"
     pagecolor="#ffffff"
     bordercolor="#666666"
     borderopacity="1.0"
     inkscape:pageshadow="2"
     inkscape:pageopacity="0.0"
     inkscape:pagecheckerboard="0"
     inkscape:document-units="mm"
     showgrid="false"
     fit-margin-top="0"
     fit-margin-left="0"
     fit-margin-right="0"
     fit-margin-bottom="0"
     inkscape:zoom="0.35455254"
     inkscape:cx="416.01733"
     inkscape:cy="478.06737"
     inkscape:window-width="1294"
     inkscape:window-height="704"
     inkscape:window-x="72"
     inkscape:window-y="27"
     inkscape:window-maximized="1"
     inkscape:current-layer="layer1" />
  <defs
     id="defs6698" />
  <g
     inkscape:label="Capa 1"
     inkscape:groupmode="layer"
     id="layer1"
     transform="translate(4.8817546,-22.430634)">
    <g
       id="g17156"
       transform="matrix(0.35277777,0,0,-0.35277777,-2048.514,1243.5649)">
      <path
         d="m 5792.9733,3445.2231 c 0,8.99 8.65,16.26 19.34,16.26 h 459.73 c 10.69,0 19.34,-7.27 19.34,-16.26 0,-8.98 -8.65,-16.26 -19.34,-16.26 h -15.24 v -738.77 c 0,-25.43 -16.84,-46.03 -37.61,-46.03 h -354.14 c -20.78,0 -37.61,20.6 -37.61,46.03 v 738.77 h -15.13 c -10.69,0 -19.34,7.28 -19.34,16.26"
         style="fill:#c4ecf4;fill-opacity:1;fill-rule:nonzero;stroke:none;stroke-width:0.1"
         id="path344-6-7-8" />
      <path
         d="m 5792.9733,3445.2231 c 0,8.98 8.65,16.26 19.34,16.26 h 130.71 c -10.69,0 15.12,-32.52 15.12,-32.52 v -738.77 c 0,-21.34 11.87,-39.29 27.97,-44.5 -3.09,-1 -6.33,-1.53 -9.67,-1.53 h -111.39 c -20.78,0 -37.62,20.6 -37.62,46.03 v 738.77 h -15.12 c -10.69,0 -19.34,7.28 -19.34,16.26"
         style="fill:#d4f1f8;fill-opacity:1;fill-rule:nonzero;stroke:none;stroke-width:0.1"
         id="path346-7-0-5" />
      <path
         d="m 6256.8033,3148.3865 v -461.4867 c 0,-23.6105 -16.84,-42.7367 -37.61,-42.7367 h -354.14 c -20.78,0 -37.62,19.1262 -37.62,42.7367 v 461.4867 h 429.37"
         style="fill:#2c5aa0;fill-opacity:1;fill-rule:nonzero;stroke:none;stroke-width:0.0963565"
         id="path348-5-4-8" />
      <path
         d="m 5958.1433,2686.8993 v 461.4872 h -130.71 v -461.4872 c 0,-23.61 16.84,-42.7362 37.62,-42.7362 h 111.39 c 3.34,0 6.58,0.4923 9.66,1.4205 -16.09,4.8373 -27.96,21.5031 -27.96,41.3157"
         style="fill:#214478;fill-opacity:1;fill-rule:nonzero;stroke:none;stroke-width:0.0963565"
         id="path350-3-8-4" />
      <g
         id="g3589-0-3"
         style="fill:#483745"
         transform="translate(1157.5224,904.0103)">
        <path
           d="m 5019.2508,2520.5327 h 81.35 v -12.56 h -81.35 v 12.56"
           style="fill:#483745;fill-opacity:1;fill-rule:nonzero;stroke:none;stroke-width:0.1"
           id="path352-5-4-7" />
        <path
           d="m 5057.4108,2489.8827 h 43.19 v -12.56 h -43.19 v 12.56"
           style="fill:#483745;fill-opacity:1;fill-rule:nonzero;stroke:none;stroke-width:0.1"
           id="path354-6-29-1" />
        <path
           d="m 5057.4108,2459.2327 h 43.19 v -12.56 h -43.19 v 12.56"
           style="fill:#483745;fill-opacity:1;fill-rule:nonzero;stroke:none;stroke-width:0.1"
           id="path356-2-6-3" />
        <path
           d="m 5057.4108,2428.5727 h 43.19 v -12.55 h -43.19 v 12.55"
           style="fill:#483745;fill-opacity:1;fill-rule:nonzero;stroke:none;stroke-width:0.1"
           id="path358-9-10-8" />
        <path
           d="m 5100.6008,2520.5327 h -81.35 v -12.56 h 81.35 v 12.56"
           style="fill:#483745;fill-opacity:1;fill-rule:nonzero;stroke:none;stroke-width:0.1"
           id="path404-2-4-0" />
        <path
           d="m 5100.6008,2489.8827 h -43.19 v -12.56 h 43.19 v 12.56"
           style="fill:#483745;fill-opacity:1;fill-rule:nonzero;stroke:none;stroke-width:0.1"
           id="path406-2-2-9" />
        <path
           d="m 5100.6008,2459.2327 h -43.19 v -12.56 h 43.19 v 12.56"
           style="fill:#483745;fill-opacity:1;fill-rule:nonzero;stroke:none;stroke-width:0.1"
           id="path408-8-2-7" />
        <path
           d="m 5100.6008,2428.5727 h -43.19 v -12.55 h 43.19 v 12.55"
           style="fill:#483745;fill-opacity:1;fill-rule:nonzero;stroke:none;stroke-width:0.1"
           id="path410-9-2-9" />
        <path
           d="m 5058.2844,2399.3897 h 43.19 v -12.56 h -43.19 v 12.56"
           style="fill:#483745;fill-opacity:1;fill-rule:nonzero;stroke:none;stroke-width:0.1"
           id="path354-6-54-05-9" />
        <path
           d="m 5058.2844,2368.7397 h 43.19 v -12.56 h -43.19 v 12.56"
           style="fill:#483745;fill-opacity:1;fill-rule:nonzero;stroke:none;stroke-width:0.1"
           id="path356-2-0-5-3" />
        <path
           d="m 5101.4744,2399.3897 h -43.19 v -12.56 h 43.19 v 12.56"
           style="fill:#483745;fill-opacity:1;fill-rule:nonzero;stroke:none;stroke-width:0.1"
           id="path406-2-9-2-2" />
        <path
           d="m 5101.4744,2368.7397 h -43.19 v -12.56 h 43.19 v 12.56"
           style="fill:#483745;fill-opacity:1;fill-rule:nonzero;stroke:none;stroke-width:0.1"
           id="path408-8-4-9-4" />
      </g>
      <path
         d="m 6177.6469,3244.5401 h 81.35 v -12.56 h -81.35 v 12.56"
         style="fill:#483745;fill-opacity:1;fill-rule:nonzero;stroke:none;stroke-width:0.1"
         id="path352-5-9-0-3" />
      <path
         d="m 6215.8069,3213.8901 h 43.19 v -12.56 h -43.19 v 12.56"
         style="fill:#483745;fill-opacity:1;fill-rule:nonzero;stroke:none;stroke-width:0.1"
         id="path354-6-2-2-7" />
      <path
         d="m 6215.8069,3183.2401 h 43.19 v -12.56 h -43.19 v 12.56"
         style="fill:#483745;fill-opacity:1;fill-rule:nonzero;stroke:none;stroke-width:0.1"
         id="path356-2-2-8-1" />
      <path
         d="m 6215.8069,3152.5801 h 43.19 v -12.55 h -43.19 v 12.55"
         style="fill:#483745;fill-opacity:1;fill-rule:nonzero;stroke:none;stroke-width:0.1"
         id="path358-9-47-3-2" />
      <path
         d="m 6258.9969,3244.5401 h -81.35 v -12.56 h 81.35 v 12.56"
         style="fill:#483745;fill-opacity:1;fill-rule:nonzero;stroke:none;stroke-width:0.1"
         id="path404-2-7-8-2" />
      <path
         d="m 6258.9969,3213.8901 h -43.19 v -12.56 h 43.19 v 12.56"
         style="fill:#483745;fill-opacity:1;fill-rule:nonzero;stroke:none;stroke-width:0.1"
         id="path406-2-5-0-0" />
      <path
         d="m 6258.9969,3183.2401 h -43.19 v -12.56 h 43.19 v 12.56"
         style="fill:#483745;fill-opacity:1;fill-rule:nonzero;stroke:none;stroke-width:0.1"
         id="path408-8-48-4-2" />
      <path
         d="m 6258.9969,3152.5801 h -43.19 v -12.55 h 43.19 v 12.55"
         style="fill:#483745;fill-opacity:1;fill-rule:nonzero;stroke:none;stroke-width:0.1"
         id="path410-9-1-0-1" />
      <path
         d="m 6216.6805,3123.3971 h 43.19 v -12.56 h -43.19 v 12.56"
         style="fill:#483745;fill-opacity:1;fill-rule:nonzero;stroke:none;stroke-width:0.1"
         id="path354-6-54-2-9-7" />
      <path
         d="m 6216.6805,3092.7471 h 43.19 v -12.56 h -43.19 v 12.56"
         style="fill:#483745;fill-opacity:1;fill-rule:nonzero;stroke:none;stroke-width:0.1"
         id="path356-2-0-8-1-5" />
      <path
         d="m 6259.8705,3123.3971 h -43.19 v -12.56 h 43.19 v 12.56"
         style="fill:#483745;fill-opacity:1;fill-rule:nonzero;stroke:none;stroke-width:0.1"
         id="path406-2-9-3-96-1" />
      <path
         d="m 6259.8705,3092.7471 h -43.19 v -12.56 h 43.19 v 12.56"
         style="fill:#483745;fill-opacity:1;fill-rule:nonzero;stroke:none;stroke-width:0.1"
         id="path408-8-4-6-2-7" />
      <path
         d="m 6178.2833,3063.5741 h 81.35 v -12.56 h -81.35 v 12.56"
         style="fill:#483745;fill-opacity:1;fill-rule:nonzero;stroke:none;stroke-width:0.1"
         id="path352-5-0-5-4" />
      <path
         d="m 6216.4433,3032.9241 h 43.19 v -12.56 h -43.19 v 12.56"
         style="fill:#483745;fill-opacity:1;fill-rule:nonzero;stroke:none;stroke-width:0.1"
         id="path354-6-21-4-1" />
      <path
         d="m 6216.4433,3002.2741 h 43.19 v -12.56 h -43.19 v 12.56"
         style="fill:#483745;fill-opacity:1;fill-rule:nonzero;stroke:none;stroke-width:0.1"
         id="path356-2-05-4-7" />
      <path
         d="m 6216.4433,2971.6141 h 43.19 v -12.55 h -43.19 v 12.55"
         style="fill:#483745;fill-opacity:1;fill-rule:nonzero;stroke:none;stroke-width:0.1"
         id="path358-9-1-9-1" />
      <path
         d="m 6259.6333,3063.5741 h -81.35 v -12.56 h 81.35 v 12.56"
         style="fill:#483745;fill-opacity:1;fill-rule:nonzero;stroke:none;stroke-width:0.1"
         id="path404-2-1-93-1" />
      <path
         d="m 6259.6333,3032.9241 h -43.19 v -12.56 h 43.19 v 12.56"
         style="fill:#483745;fill-opacity:1;fill-rule:nonzero;stroke:none;stroke-width:0.1"
         id="path406-2-0-6-1" />
      <path
         d="m 6259.6333,3002.2741 h -43.19 v -12.56 h 43.19 v 12.56"
         style="fill:#483745;fill-opacity:1;fill-rule:nonzero;stroke:none;stroke-width:0.1"
         id="path408-8-8-0-7" />
      <path
         d="m 6259.6333,2971.6141 h -43.19 v -12.55 h 43.19 v 12.55"
         style="fill:#483745;fill-opacity:1;fill-rule:nonzero;stroke:none;stroke-width:0.1"
         id="path410-9-5-5-0" />
      <path
         d="m 6217.3169,2942.4311 h 43.19 v -12.56 h -43.19 v 12.56"
         style="fill:#483745;fill-opacity:1;fill-rule:nonzero;stroke:none;stroke-width:0.1"
         id="path354-6-54-0-02-4" />
      <path
         d="m 6217.3169,2911.7811 h 43.19 v -12.56 h -43.19 v 12.56"
         style="fill:#483745;fill-opacity:1;fill-rule:nonzero;stroke:none;stroke-width:0.1"
         id="path356-2-0-6-9-0" />
      <path
         d="m 6217.3169,2881.1211 h 43.19 v -12.55 h -43.19 v 12.55"
         style="fill:#483745;fill-opacity:1;fill-rule:nonzero;stroke:none;stroke-width:0.1"
         id="path358-9-5-4-4-8" />
      <path
         d="m 6260.5069,2942.4311 h -43.19 v -12.56 h 43.19 v 12.56"
         style="fill:#483745;fill-opacity:1;fill-rule:nonzero;stroke:none;stroke-width:0.1"
         id="path406-2-9-6-3-5" />
      <path
         d="m 6260.5069,2911.7811 h -43.19 v -12.56 h 43.19 v 12.56"
         style="fill:#483745;fill-opacity:1;fill-rule:nonzero;stroke:none;stroke-width:0.1"
         id="path408-8-4-2-5-1" />
      <path
         d="m 6260.5069,2881.1211 h -43.19 v -12.55 h 43.19 v 12.55"
         style="fill:#483745;fill-opacity:1;fill-rule:nonzero;stroke:none;stroke-width:0.1"
         id="path410-9-6-5-1-6" />
      <path
         d="m 6177.1876,2846.6676 h 81.35 v -12.56 h -81.35 v 12.56"
         style="fill:#483745;fill-opacity:1;fill-rule:nonzero;stroke:none;stroke-width:0.1"
         id="path352-5-0-8-7-6" />
      <path
         d="m 6215.3476,2816.0176 h 43.19 v -12.56 h -43.19 v 12.56"
         style="fill:#483745;fill-opacity:1;fill-rule:nonzero;stroke:none;stroke-width:0.1"
         id="path354-6-21-6-4-2" />
      <path
         d="m 6215.3476,2785.3676 h 43.19 v -12.56 h -43.19 v 12.56"
         style="fill:#483745;fill-opacity:1;fill-rule:nonzero;stroke:none;stroke-width:0.1"
         id="path356-2-05-2-3-1" />
      <path
         d="m 6215.3476,2754.7076 h 43.19 v -12.55 h -43.19 v 12.55"
         style="fill:#483745;fill-opacity:1;fill-rule:nonzero;stroke:none;stroke-width:0.1"
         id="path358-9-1-8-1-9" />
      <path
         d="m 6258.5376,2846.6676 h -81.35 v -12.56 h 81.35 v 12.56"
         style="fill:#483745;fill-opacity:1;fill-rule:nonzero;stroke:none;stroke-width:0.1"
         id="path404-2-1-4-4-6" />
      <path
         d="m 6258.5376,2816.0176 h -43.19 v -12.56 h 43.19 v 12.56"
         style="fill:#483745;fill-opacity:1;fill-rule:nonzero;stroke:none;stroke-width:0.1"
         id="path406-2-0-7-6-4" />
      <path
         d="m 6258.5376,2785.3676 h -43.19 v -12.56 h 43.19 v 12.56"
         style="fill:#483745;fill-opacity:1;fill-rule:nonzero;stroke:none;stroke-width:0.1"
         id="path408-8-8-2-94-8" />
      <path
         d="m 6258.5376,2754.7076 h -43.19 v -12.55 h 43.19 v 12.55"
         style="fill:#483745;fill-opacity:1;fill-rule:nonzero;stroke:none;stroke-width:0.1"
         id="path410-9-5-4-2-0" />
      <path
         d="m 6216.2212,2725.5246 h 43.19 v -12.56 h -43.19 v 12.56"
         style="fill:#483745;fill-opacity:1;fill-rule:nonzero;stroke:none;stroke-width:0.1"
         id="path354-6-54-0-0-2-8" />
      <path
         d="m 6216.2212,2694.8746 h 43.19 v -12.56 h -43.19 v 12.56"
         style="fill:#483745;fill-opacity:1;fill-rule:nonzero;stroke:none;stroke-width:0.1"
         id="path356-2-0-6-6-6-1" />
      <path
         d="m 6259.4112,2725.5246 h -43.19 v -12.56 h 43.19 v 12.56"
         style="fill:#483745;fill-opacity:1;fill-rule:nonzero;stroke:none;stroke-width:0.1"
         id="path406-2-9-6-9-4-0" />
      <path
         d="m 6259.4112,2694.8746 h -43.19 v -12.56 h 43.19 v 12.56"
         style="fill:#483745;fill-opacity:1;fill-rule:nonzero;stroke:none;stroke-width:0.1"
         id="path408-8-4-2-9-1-2" />
    </g>
  </g>
</svg>
